<?xml version="1.0" standalone="no"?>
<svg viewBox="0 0 200 200" xmlns="http://www.w3.org/2000/svg">
  <path fill="#1E2022" d="M28.4,-42.1C38.4,-37.7,49.4,-32.6,54.5,-24.1C59.5,-15.6,58.7,-3.7,55.3,6.7C51.9,17.1,46,25.9,39.6,35.4C33.1,45,26.2,55.2,16,61.5C5.7,67.8,-7.8,70.1,-17.6,65C-27.5,59.8,-33.8,47.3,-41.6,36.8C-49.4,26.4,-58.7,18.1,-63.9,6.9C-69.1,-4.3,-70.1,-18.4,-64.6,-29C-59,-39.6,-46.7,-46.6,-34.9,-50.2C-23,-53.9,-11.5,-54,-1.2,-52.2C9.2,-50.4,18.3,-46.5,28.4,-42.1Z" transform="translate(100 100)" />
</svg>
