<?xml version="1.0" standalone="no"?>
<svg version="1.1" id="Layer_1" xmlns="http://www.w3.org/2000/svg" xmlns:xlink="http://www.w3.org/1999/xlink" x="0px" y="0px" width="595.28px" height="595.28px" viewBox="0 0 595.28 595.28" enable-background="new 0 0 595.28 595.28" xml:space="preserve">
<path id="color_x5F_2" fill="#52616b" d="M244.908,191.628c-2.184,0.643-4.319,1.051-6.148,1.308
	c-0.99,0.007-1.95-0.106-2.864-0.371c7.237-11.639,16.387-21.87,27.153-30.362c4.178-3.295,8.639-6.235,13.34-8.726
	c2.251-1.193,6.451-3.715,9.324-3.249c0.047,0.063,0.09,0.129,0.138,0.192c0.2,0.264,0.602,0.35,1.039,0.314
	c2.521,2.411-4.753,12.34-5.815,13.605c-5.998,7.142-13.893,13.068-21.443,18.473C256.228,185.249,250.557,189.49,244.908,191.628z
	 M299.695,116.335c0.092-0.197,0.187-0.396,0.28-0.597c-1.516,1.204-3.196,2.24-4.852,3.132c-0.513,0.276-3.438,0.608-2.211-0.054
	c2.341-1.261,4.983-2.965,6.937-5.125c-4.681,1.306-9.377,2.562-14.078,3.792c-13.152,3.444-26.333,6.791-39.553,9.967
	c-4.549,1.093-9.099,2.207-13.682,3.15c-0.489,0.101-1.555,0.444-2.598,0.629c-0.733,1.527-2.046,3.054-2.875,4.351
	c-2.783,4.358-5.583,8.705-8.365,13.064c-6.834,10.71-13.678,21.436-20.031,32.44c-2.323,4.022-4.817,8.1-6.551,12.423
	c-0.73,1.822-1.453,1.502,0.859,1.18c2.113-0.295,4.216-0.666,6.313-1.061c6.08-1.146,12.137-2.428,18.177-3.768
	c2.233-0.495,4.466-0.993,6.692-1.519c0.414-0.098,1.588-0.456,2.305-0.629c-1.604-2.137-2.862-4.542-3.749-7.047
	c-0.113-0.321,0.44-0.677,1.095-0.892c3.19-14.918,18.578-27.592,30.667-35.331c6.217-3.979,13.521-7.292,20.818-8.599
	c3.541-0.634,6.684,3.162,9.203,7.022c1.198-1.826,2.554-4.419,3.583-6.109c2.32-3.808,4.619-7.633,6.827-11.508l2.221-3.973
	C298.023,119.649,298.908,118.015,299.695,116.335z M238.737,127.672c6.214-1.446,12.413-2.959,18.604-4.499
	c9.271-2.305,18.539-4.639,27.781-7.069l-54.23,13.281c0.594-0.112,1.187-0.227,1.777-0.353
	C234.697,128.6,236.719,128.142,238.737,127.672z M226.022,189.746l1.894-0.295c-0.084-0.092-0.174-0.179-0.256-0.272
	C227.152,189.402,226.596,189.583,226.022,189.746z M233.979,191.404c8.867-13.905,20.69-26.255,34.649-35.089
	c2.131-1.349,10.204-6.745,15.878-7.762c-1.922-2.731-3.714-5.582-5.838-8.138c-1.474-1.772-2.544-3.228-5.252-2.499
	c-1.457,0.393-2.899,0.815-4.314,1.35c-6.232,2.354-12.12,5.353-17.47,9.343c-10.313,7.692-23.085,18.921-25.192,32.329
	c-0.025,0.159-0.115,0.303-0.242,0.433C227.865,185.332,230.487,188.884,233.979,191.404z M285.797,144.933l0.182-0.413
	c-0.084,0.1-0.164,0.205-0.251,0.3C285.751,144.858,285.772,144.895,285.797,144.933z M230.068,129.702
	c0.008,0.004,0.016,0.008,0.023,0.013c0.014,0.006,0.025,0.014,0.038,0.021c-0.06-0.052-0.114-0.091-0.166-0.122l-0.101,0.024
	c0.057,0.016,0.119,0.025,0.168,0.049C230.045,129.691,230.056,129.697,230.068,129.702z M478.879,502.879l-0.04-0.16
	c-0.17,0.069-0.349,0.118-0.526,0.145L478.879,502.879z M419.758,353.856c0.441-2.421,0.855-4.653,1.229-6.646
	c-0.867,2.337-1.547,4.787-2.095,7.271C419.187,354.283,419.469,354.063,419.758,353.856z M418.49,356.411
	c-0.742,3.8-1.239,7.622-1.725,11.167c-0.543,3.959-0.986,7.932-1.365,11.912c1.298-8.326,2.719-16.553,3.971-23.499
	c-0.124,0.075-0.24,0.162-0.365,0.236C418.871,356.308,418.689,356.368,418.49,356.411z M430.776,433.145
	c3.813-6.71,7.67-13.397,11.438-20.133c1.299-2.322,2.604-4.643,3.829-7.004c0.388-0.747,0.78-1.493,1.128-2.26
	c0.742-1.639-0.199-0.24,1.67-0.193c-1.379-0.035-1.521-1.117-0.9-1.738c-3.876-6.722-6.837-13.888-9.881-21.017
	c-0.385-0.9,0.971-1.575,1.981-1.412c5.368-4.278,11.93-6.5,17.89-9.813c-3.695-8.351-8.146-16.73-9.684-25.812
	c-6.262,6.52-9.475,16.792-12.242,24.998c-4.354,12.909-7.713,26.151-10.641,39.449c-2.777,12.615-5.215,25.315-7.182,38.083
	c-0.668,4.337-1.521,8.836-2.025,13.326c0.965-1.849,1.988-3.661,2.933-5.432C422.868,447.108,426.813,440.12,430.776,433.145z
	 M476.928,502.129c-0.385-2.44-0.732-4.889-1.055-7.344c-0.365-0.003-0.57-0.078-0.375-0.26c0.103-0.096,0.199-0.196,0.301-0.293
	c-2.346-18.164-3.117-36.699-4.254-54.905c-0.676-10.808-1.354-21.636-1.537-32.465c-0.031-1.845-1.394-11.339,2.555-10.747
	c1.946,0.292,0.516,2.433-0.977,2.209c2.084,0.313,1.596-1.636,1.439,0.865c-0.071,1.128-0.099,2.259-0.104,3.389
	c-0.016,3.56,0.085,7.121,0.218,10.679c0.389,10.424,1.005,20.84,1.694,31.248c1.035,15.618,1.771,31.469,3.658,47.075
	c12.047-12.355,20.496-27.73,31.254-41.161c3.005-3.751,6.064-7.459,9.254-11.055c1.941-2.188,4.346-4.295,5.67-6.945
	c1.129-2.257,1.783-4.66,1.613-6.729c-0.491-1.682-1.36-3.23-2.904-3.81c-0.87-0.326-1.738-0.848-2.567-1.455
	c-0.065-0.014-0.133-0.013-0.198-0.03c-0.125-0.017-0.235-0.044-0.365-0.057c-0.107-0.011-0.131-0.048-0.103-0.101
	c-3.335-1.372-6.082-7.385-7.536-9.639c-0.071-0.11-0.141-0.222-0.211-0.332c-3.443-5.348-9.178-14.304-13.436-21.219
	c-0.459-0.668-0.915-1.337-1.385-1.997c-7.025-9.868-17.801-17.338-27.027-25.004c-4.199-3.49-8.599-6.73-12.794-10.225
	c-1.879-1.565-3.994-3.191-5.802-5.039c1.982,7.714,5.768,14.971,8.963,22.21c0.354,0.803-1.141,1.484-2.139,1.301
	c-5.74,2.998-11.945,5.2-16.917,9.451c-0.148,0.127-0.489,0.245-0.879,0.336c3.157,7.396,6.207,14.837,10.356,21.748
	c0.454,0.756-0.257,1.441-1.076,1.675c-0.49,1.785-2.126,4.157-2.508,4.86c-3.593,6.618-7.367,13.137-11.096,19.679
	c-4.563,8.006-9.142,16.006-13.515,24.118c-2.575,4.779-5.956,9.93-7.35,15.242c0.028,0.105,0.047,0.215,0.076,0.319
	c0.192,0.694-0.674,1.245-1.515,1.362c-0.057,0.008-0.111,0.013-0.168,0.017c-0.023,0.001-0.047,0.005-0.07,0.006
	c-0.028,0.001-0.056,0.004-0.084,0.004c-0.699,0.163-1.479,0.027-1.712-0.598c-3.79-10.163-7.351-20.471-10.014-30.993
	c-2.227-8.797-3.688-17.77-5.78-26.604c-0.773-3.271-3.752-9.167-1.878-12.314c3.392-5.697,6.846-11.393,9.858-17.302
	c0.05-0.098,0.123-0.184,0.203-0.265c-3.73-4.652-5.658-11.205-11.25-14.006c-0.38-0.19-0.301-0.45-0.011-0.693
	c0.026-0.221,0.161-0.47,0.459-0.738c9.644-8.673,16.786-20.244,28.015-27.101c0.109-0.067,0.233-0.115,0.361-0.153
	c-2.843-1.315-5.741-2.372-8.672-3.282l-2.736-0.684c0,0-3.742-0.959-9.041-2.332c-7.53-1.665-15.111-3.13-22.428-5.891
	c-0.347-0.093-0.692-0.186-1.031-0.277c-2.607-0.702-5.091-1.79-7.416-3.083c-8.541-3.707-17.518-8.965-20.283-17.279
	c-0.05-0.15,0.041-0.304,0.209-0.449c-0.002-0.027-0.011-0.05-0.009-0.079c0.233-3.542-0.761-9.296-3.609-11.736
	c-0.556-0.476-1.035-0.71-1.454-0.768c-0.908,1.073-1.836,2.611-2.641,4.107c-0.102,0.55-0.174,1.043-0.23,1.383
	c-1.242,7.39-1.892,14.891-2.527,22.353c-1.555,18.219-2.115,36.464-3.344,54.699c-0.845,12.557-1.906,25.398-0.507,37.973
	c0.2,1.489,0.403,2.967,0.606,4.412c1.75,10.766,5.731,20.477,11.361,29.8c5.205,8.62,11.031,16.838,16.998,24.943
	c0.369,0.501,2.331,2.746,3.907,4.916c0.81-6.343,1.605-12.688,2.255-19.049c0.992-9.723,1.274-19.476,2.488-29.177
	c1.348-10.771,2.972-21.516,4.855-32.206c1.287-7.303,2.123-15.379,4.935-22.304c0.332-0.818,3.152-1.139,2.873-0.452
	c-2.948,7.261-3.813,15.777-5.132,23.439c-1.834,10.649-3.491,21.343-4.78,32.073c-1.187,9.871-1.453,19.802-2.525,29.688
	c-1.479,13.637-3.499,27.211-4.896,40.856c0,0.004-0.003,0.007-0.004,0.011l108.141,2.896
	C477.281,502.761,476.992,502.537,476.928,502.129z M347.824,291.068c0.248,0.066,0.485,0.155,0.717,0.256
	C348.318,291.14,348.08,291.054,347.824,291.068z M396.566,366.163c5.392,3.187,7.273,9.61,11.206,14.233
	c0.232,0.273,0.015,0.579-0.382,0.826c-0.006,0.12-0.035,0.251-0.111,0.401c-3.014,5.909-6.463,11.609-9.859,17.303
	c-0.461,0.773-0.502,0.839-0.508,0.827c0.238,0.956,0.474,1.911,0.707,2.867c0.817,3.349,1.626,6.699,2.402,10.057
	c1.971,8.53,3.313,17.207,5.604,25.66c1.682,6.206,3.613,12.335,5.689,18.417c-0.184-3.533-0.208-7.075-0.336-10.441
	c-0.492-12.962-0.527-25.951-0.125-38.916c0.43-13.854,1.189-27.782,3.273-41.499c1.182-7.784,2.403-16.8,6.396-23.886
	C411.425,348.748,404.846,358.489,396.566,366.163z M177.492,331.558c-0.033,0.028-0.066,0.06-0.1,0.087
	c0.034-0.009,0.068-0.019,0.104-0.027C177.494,331.598,177.49,331.579,177.492,331.558z M123.52,453.62
	c-0.337,4.664-0.738,10.053-1.137,15.05C123.124,463.679,123.526,458.645,123.52,453.62z M237.227,385.985
	c9.326,33.428,13.751,68.159,18.64,102.533l0.013-0.139c0,0,3.381-1.99,6.631-4.337c5.428-6.534,7.604-15.691,8.965-23.845
	c3.264-19.565,2.445-39.819,0.781-59.493c-1.038-12.277-3.738-24.746-3.556-37.074c0.105-7.123,0.497-16.084,4.341-22.616
	l-2.404,0.961c-0.66,0.847-1.19,1.864-1.704,2.865c-1.06,2.065-2.101,4.093-3.801,5.713c-0.696,0.664-3.559,0.679-2.328-0.493
	c0.645-0.614,1.16-1.31,1.621-2.042l-6.046,1.86c0,0-0.306,0.02-0.806,0.048c-1.537,0.865-3.114,1.605-4.804,1.748
	c-5.639,0.476-10.306-2.346-14.762-5.524c-10.352-7.384-21.697-12.04-33.414-16.551c2.213,3.539,5.833,6.55,8.775,8.99
	c3.987,3.308,8.169,6.397,12.591,9.104c0.993-0.014,1.908,0.659,0.812,1.557c-4.1,3.355-6.67,8.248-10.108,12.214
	c-0.037,0.042-0.082,0.08-0.126,0.117c5.258,5.646,9.18,13.145,16.46,16.422c0.104,0.046-0.068,0.205-0.372,0.385
	c-0.02,0.031-0.037,0.061-0.069,0.095c-10.02,10.666-17.769,23.606-22.282,37.534c-0.289,0.894-3.17,1.29-2.885,0.411
	c0.08-0.249,0.17-0.495,0.253-0.743c-0.388-0.02-0.747-0.155-0.962-0.47c-3.438-5.053-6.84-10.288-11.138-14.671
	c-2.551-2.601-5.321-4.996-8.359-7.015c-2.117-1.407-4.718-2.511-6.595-4.244c-2.201-2.032-2.414-4.033-1.547-6.87
	c1.733-5.667,2.999-11.432,4.289-17.207c-0.354,0.066-0.691,0.062-0.926-0.053c-4.196-2.055-8.978-2.475-12.637-5.548
	c-0.205-0.172-0.123-0.484-0.025-0.678c4.09-8.029,6.767-17.229,6.541-26.295c-0.001-0.046,0.01-0.09,0.02-0.134
	c-5.452,4.079-12.074,6.103-17.59,10.152c-7.479,5.491-12.499,15.911-15.939,24.347c-5.685,13.936-9.77,29.083-20.244,40.373
	c-0.093,0.101-0.227,0.186-0.382,0.257c0.247,0.183,0.319,0.387,0.26,0.588c2.423,3.813,5.3,7.374,6.619,11.763
	c0.2,0.667-2.687,1.482-2.898,0.776c-1.331-4.431-4.252-8.018-6.688-11.873c-1.113-0.699-4.121-2.493-4.95-1.647l3.89,8.644
	l0.603,2.562c0.784,1.646,1.519,3.317,2.149,5.021c2.91,7.855,4.629,16.298,5.074,24.667c0.863,16.204-2.293,31.853-8.038,46.962
	c-0.207,0.545-1.095,0.861-1.817,0.833c-2.455,5.015-4.971,9.456-4.971,9.456l31.564-0.436
	c7.786-38.007,13.887-76.336,18.422-114.865c0.105-0.894,2.945-1.173,2.898-0.776c-4.565,38.777-10.701,77.354-18.552,115.604
	l109.305-1.508c-5.817-38.936-10.084-78.628-20.688-116.636C234.143,386.096,237.037,385.306,237.227,385.985z M212.627,400.271
	c-0.152,0.905-0.352,1.794-0.592,2.668c0.006,0.633,0.008,1.233,0.007,1.802c4.499-9.522,10.502-18.374,17.66-26.034
	c-7.151-3.521-11.048-11.169-16.433-16.714c-0.193-0.199,0.184-0.506,0.718-0.751c0.021-0.156,0.101-0.333,0.277-0.536
	c3.211-3.704,5.709-8.041,9.253-11.437c-5.02-3.086-9.868-6.622-14.234-10.576c-2.093-1.896-4.428-3.98-6.275-6.351
	c2.063,6.907,5.409,13.327,7.178,20.311c1.499,5.918,2.239,12.04,2.705,18.118c0.529,6.896,0.794,13.844,0.464,20.757
	c-0.061,1.268-0.117,2.575-0.202,3.892c0.139,1.53,0.227,2.458,0.227,2.458L212.627,400.271z M210.914,407.263l-0.211-0.868
	l-0.582,1.851c-0.02,0.32-0.037,0.641-0.063,0.96C210.328,408.552,210.63,407.911,210.914,407.263z M174.951,353.624
	c-0.551,1.441-1.164,2.885-1.865,4.26c-0.866,1.701,3.947,3.011,4.795,3.274c2.01,0.624,3.979,1.242,5.892,2.085
	c0.124-0.548,0.247-1.097,0.372-1.646c0.308-1.341,3.281-1.668,2.943-0.194c-1.479,6.454-2.578,13.074-4.624,19.375
	c-0.506,1.558-1.808,4.353-0.5,5.898c1.63,1.927,4.074,2.893,6.134,4.262c7.916,5.261,13.582,12.075,18.924,19.645
	c0.096-0.891,0.169-1.783,0.21-2.675c-0.183-0.164-0.296-0.394-0.285-0.706c0.036-1.109,0.034-2.213,0.015-3.314
	c-0.422-4.391-0.995-9.489-1.731-14.272c-4.378-19.878-16.17-38.325-26.047-55.762C179.098,340.651,177.369,347.29,174.951,353.624z
	 M151.419,273.094c-3.005,1.056-6.042,2.077-8.995,3.274l9.159-2.181c-0.061-0.337-0.122-0.674-0.168-1.016
	C151.412,273.145,151.418,273.12,151.419,273.094z M222.924,247.889c-16.279-0.6-32.576-0.612-48.862-0.964
	c-7.587,5.089-13.361,12.272-20.703,17.667c-5.853,4.301-11.989,8.268-17.386,13.121c4.856-2.51,10.125-4.16,15.269-6.04
	c8.163-2.983,16.285-6.075,24.48-8.973C191.27,257.204,207.068,252.424,222.924,247.889z M162.509,253.543l-17.059,14.11
	c2.008-1.434,4.018-2.868,5.993-4.356C155.385,260.329,158.906,256.886,162.509,253.543z M176.842,263.797
	c-7.6,2.704-15.143,5.557-22.717,8.327c0.104,0.065,0.173,0.153,0.188,0.271c0.338,2.539,1.118,4.943,1.999,7.322l1.52,2.583
	c0.266-0.069,0.527-0.148,0.791-0.22l46.789-18.812c-1.679-2.333-2.678-5.036-4.055-7.552
	C193.132,258.25,184.947,260.914,176.842,263.797z M172.021,245.674l-0.301,0.249c0.08-0.055,0.155-0.117,0.236-0.171
	C171.975,245.726,172.002,245.701,172.021,245.674z"></path>
<path id="color_x5F_1" fill="#1e2022" d="M209.33,283.349c1.133,2.05,2.673,4.539,2.483,6.982c-0.206,2.657-2.424,3.957-4.8,4.547
	c-1.785,0.443-2.306-1.458-0.51-1.903c4.332-1.075,1.568-5.836,0.168-8.371C205.955,283.306,208.729,282.261,209.33,283.349z
	 M193.389,285.797c1.346,0.246,2.971-1.63,1.035-1.983c-2.522-0.46-5.064,0.213-6.692,2.273c-1.126,1.426,1.639,1.716,2.398,0.754
	C191.057,285.668,191.959,285.536,193.389,285.797z M214.299,278.103c-0.443,0.471-1.306,0.71-1.932,0.72
	c-0.193,0.002-0.262-0.003-0.375,0.013c-0.209,0.127-0.387,0.502-0.483,0.761c-0.202,0.543-1.202,0.766-1.685,0.845
	c-0.212,0.035-1.386,0.165-1.185-0.375c0.702-1.883,3.138-2.516,4.946-2.543C213.893,277.518,214.768,277.604,214.299,278.103z
	 M211.949,278.841c0.002,0,0.002,0,0.004,0C211.951,278.841,211.951,278.841,211.949,278.841z M206.808,274.757
	c0.55-0.144,1.09-0.335,1.604-0.575c0.201-0.094,1.021-0.574,0.371-0.695c-0.644-0.12-1.444,0.116-2.021,0.386
	c-0.268,0.125-0.541,0.165-0.883,0.255c-0.55,0.144-1.09,0.334-1.605,0.574c-0.202,0.094-1.021,0.574-0.371,0.695
	c0.645,0.12,1.443-0.117,2.021-0.386C206.191,274.886,206.466,274.846,206.808,274.757z M190.637,278.708
	c0.599,0.173,1.484-0.148,2.021-0.388c0.255-0.114,0.978-0.509,0.374-0.683c-2.093-0.604-4.668,0.23-6.443,1.358
	c-0.448,0.285-0.411,0.559,0.15,0.563c0.669,0.004,1.48-0.188,2.049-0.549C189.467,278.577,189.849,278.481,190.637,278.708z
	 M198.958,299.84c-2.153-0.388-3.608-1.628-4.018-3.815c-0.162-0.865-3.075-0.167-2.898,0.776c0.503,2.687,2.544,4.016,5.105,4.477
	c0.667,0.12,1.523-0.132,2.049-0.549C199.67,300.353,199.529,299.943,198.958,299.84z M142.729,506.019
	c-0.142,0.691,2.711,0.225,2.861-0.502c0.042-0.204,0.08-0.408,0.122-0.611l-2.769,0.038
	C142.87,505.302,142.803,505.661,142.729,506.019z M161.365,390.078c-4.535,38.529-10.636,76.858-18.422,114.865l2.769-0.038
	c7.851-38.249,13.986-76.826,18.552-115.604C164.311,388.905,161.471,389.184,161.365,390.078z M417.417,291.434
	c-2.515-0.285-5.766,0.324-7.095,2.759c-1.378,2.525,1.131,4.344,3.322,4.937c0.721,0.194,1.551,0.056,2.049-0.549
	c0.407-0.494,0.289-1.277-0.391-1.461c-0.941-0.254-2.852-0.887-2.356-2.239c0.479-1.305,2.354-1.399,3.486-1.271
	c0.701,0.08,1.572-0.216,1.883-0.901C418.614,292.05,418.047,291.505,417.417,291.434z M426.812,307.945
	c-0.742,0.702-1.392,0.88-2.389,0.659c-1.452-0.322-2.907,1.727-0.99,2.152c1.878,0.417,3.911-0.116,5.313-1.443
	C430.169,307.966,427.895,306.919,426.812,307.945z M435.435,294.66c0.163,1.135,3.073,0.438,2.898-0.776
	c-0.52-3.612-4.118-4.37-7.233-4.024c-0.582,0.065-1.501,0.387-1.626,1.063c-0.126,0.683,0.828,0.81,1.288,0.759
	C433.086,291.424,435.069,292.12,435.435,294.66z M436.348,282.461c1.94,0.356,3.703,1.23,4.793,2.927
	c0.529,0.823,3.344-0.122,2.689-1.14c-1.258-1.958-3.488-2.967-5.711-3.376c-0.689-0.126-1.522,0.077-2.05,0.549
	C435.623,281.822,435.738,282.349,436.348,282.461z M446.127,317.515c0.682,0.019,1.485-0.237,1.911-0.796
	c0.479-0.63,1.392-1.972,2.291-2.005c0.664-0.025,1.509-0.199,1.911-0.796c0.376-0.557-0.314-0.887-0.79-0.869
	c-2.638,0.1-4.563,1.563-6.113,3.597C444.908,317.208,445.698,317.503,446.127,317.515z M478.313,502.864l-0.662-0.018
	C477.854,502.893,478.081,502.899,478.313,502.864z M162.509,253.543l9.212-7.62C168.413,248.188,165.432,250.831,162.509,253.543z
	 M552.557,499.723c0.086,1.388-2.848,1.779-2.945,0.182c-1.424-23.097-15.133-43.073-25.577-63.017
	c-2.909,3.553-6.415,6.778-9.168,10.173c-3.34,4.119-6.471,8.427-9.546,12.787c0.038,0.113,0.057,0.239,0.036,0.391
	c-0.928,6.646,4.855,14.508,8.041,19.892c3.526,5.961,7.575,11.793,10.324,18.172c0.532,1.236-2.341,2.069-2.898,0.776
	c-3.173-7.361-8.063-13.98-11.978-20.954c-2.266-4.037-5.635-9.195-6.379-14.208c-7.286,10.447-14.524,20.955-23.731,29.72
	c0.33,2.58,0.687,5.153,1.091,7.715c0.099,0.627-0.387,1.12-0.987,1.366l-1.96-7.84l50-63.5c0,0,0.184-3.015-0.596-5.69
	c-0.205-2.496-1.614-4.507-4.893-5.176c-0.195-0.007-0.387-0.048-0.579-0.089c-2.981-2.184-5.433-5.545-5.433-5.545
	s-1.176-1.812-2.98-4.613c-4.52-7.034-8.701-14.323-13.436-21.219c-2.367-3.846-4.282-7.064-5.084-8.668c-3-6-44-38-44-38l-4,2
	l-11.5,24.5c0,0-9,33-10,34.5s-10.5,62-10.5,62s-3.5-27.5-2.5-51.5c0.371-8.915,2.054-21.761,4.021-34.388
	c-0.873,9.186-1.359,18.413-1.626,27.629c-0.355,12.258-0.374,24.536,0.063,36.793c0.318-3.379,0.527-6.778,0.913-10.021
	c1.568-13.185,3.18-26.366,5.008-39.518c1.693-12.181,3.359-24.447,6.069-36.453c0.633-2.807,1.241-5.748,2.312-8.455
	c-2.883,2.234-5.646,4.623-8.768,6.525c0.131-0.726,0.26-1.439,0.387-2.136c2.662-1.903,5.129-4.082,7.776-6.006
	c0.416-0.302,0.947-0.511,1.479-0.56c-1.385-2.036-2.814-4.083-4.41-5.958c-0.313,0.063-0.619,0.093-0.87,0.091
	c-1.096,1.803-1.991,3.753-2.747,5.787c1.131-6.026,1.893-9.832,1.893-9.832l-9.264-2.316c-3.882-1.205-7.822-2.142-11.777-3.016
	c-6.481-1.679-15.289-3.976-22.428-5.891c-0.014-0.006-0.028-0.01-0.043-0.016c-2.568-0.971-5.461-2.066-8.404-3.344
	c-9.271-5.153-15.985-13.618-17.584-14.417c-2-1-2-8.5-4-15.5c-0.227-0.792-0.513-1.284-0.838-1.555
	c4.205,1.838,5.488,9.176,5.22,13.24c-0.007,0.103-0.058,0.201-0.139,0.294c3.989,11.698,20.732,17.665,31.305,21.216
	c12.792,4.296,26.027,5.09,38.487,10.517c0.229-4.294,0.126-9.142-3.378-11.224c-6.265-3.722-15.07-5.123-18.161-12.686
	c-1.584-3.876-1.075-6.947,0.746-10.618c2.54-5.119,5.021-10.315,8.081-15.151c3.301-5.218,6.614-11.93,11.486-16.037
	c-9.824-5.122-16.286-12.345-6.458-21.035c4.308-3.809,10.912-3.526,16.004-1.835c7.605,2.525,11.316,10.854,18.586,13.915
	c7.111,2.994,18.928,2.928,18.168,13.503c0.223-0.006,0.42,0.022,0.563,0.105c5.072,2.932,8.28,8.31,9.188,14.061
	c0.991,6.27-0.337,11.001-3.418,16.496c-6.373,11.364-16.919,21.259-29.35,25.535l-0.446,0.213c0.107,2.311,0.7,4.492,1.549,5.43
	c1.045,1.154,2.451,2.359,3.1,3.834c0.585-0.077,1.123,0.065,1.241,0.507c0.413-0.003,0.768,0.106,0.913,0.387
	c1.996,3.859,6.307,6.856,9.6,9.523c3.914,3.171,7.988,6.16,11.822,9.427c8.584,7.314,18.974,14.197,25.789,23.305
	c4.77,6.374,8.754,13.345,12.984,20.078c2.174,3.46,4.333,6.949,6.714,10.273c0.759,1.06,1.516,2.139,2.385,3.113
	c1.086,1.217,1.919,1.001,0.292,1.551c0.564-0.19,1.229-0.125,1.623,0.063c5.074,0.667,7.441,4.256,5.784,9.375
	c-0.65,2.008-1.654,3.862-2.854,5.62c0.068,0.066,0.129,0.141,0.177,0.232C536.859,455.243,551.08,475.764,552.557,499.723z
	 M426.144,248.798c-1.589-0.215-3.175-0.177-4.663,0.182C422.984,248.74,424.576,248.689,426.144,248.798z M430.854,344.819
	c2.94-3.552,7.333-6.191,11.223-8.116c0.073-0.037,0.149-0.066,0.224-0.092c-0.168-0.381-0.273-0.777-0.269-1.203
	c0.034-3.325-0.045-9.209,3.171-11.409c3.24-2.218,8.806-1.039,10.159-5.819c0.991-3.499-1.745-11.467-6.462-6.857
	c-0.36,0.352-1.312,0.525-1.965,0.441c-0.05,0.006-0.1,0.012-0.145,0.012c-0.41,0-0.821,0-1.232,0
	c-0.105,0.059-0.18,0.102-0.18,0.102s-0.005-0.038-0.013-0.102c-0.276,0-0.706-0.002-0.828-0.309
	c-3.459-8.675,0.092-17.574,8.257-21.175c-4.91-0.544-8.875-6.917-6.811-11.415c-5.115-0.962-14.477-3.468-22.254-7.23
	c-1.829,1.832-3.348,4.107-4.749,6.333c0.213-0.032,0.427-0.054,0.635-0.054c0.817,0,1.634,0,2.45,0
	c0.564,0,0.622,0.342,0.168,0.625c-0.595,0.371-1.354,0.549-2.049,0.549c-0.637,0-1.272,0-1.908,0
	c-0.313,0.498-0.621,0.989-0.929,1.465c-0.836,1.294-1.679,2.583-2.513,3.876c1.861-0.179,3.525,0.382,4.465,2.187
	c0.334,0.642-0.082,1.205-0.684,1.494c-0.492,0.237-1.639,0.417-1.969-0.217c-0.418-0.803-1-1.558-1.908-1.395
	c-0.346,0.062-0.818,0.093-1.187-0.047c-0.905,1.447-1.788,2.908-2.605,4.412c-4.122,7.587-11.343,17.395-3.384,25.001
	c3.393,3.242,7.342,4.816,11.555,6.682c1.947,0.862,3.958,1.711,5.42,3.311c2.625,2.875,1.84,8.897,1.598,12.982
	c0.002,0.002,0.006,0.004,0.008,0.006C427.867,340.668,429.407,342.72,430.854,344.819z M436.407,359.782
	c-0.398-0.032-0.7-0.192-0.728-0.515c-0.272-3.201-2.869-6.623-4.875-9.397c-0.041,0.115-0.089,0.227-0.127,0.343
	c-1.246,3.83-2.088,7.794-2.865,11.742c-2.365,12.008-4.089,24.146-5.724,36.271c-1.435,10.636-2.745,21.288-4.021,31.944
	c1.537-8.38,3.229-16.732,5.127-25.036c3.018-13.2,6.369-26.399,10.953-39.153C434.864,363.99,435.604,361.896,436.407,359.782z
	 M446.854,342.087c-0.635-1.52-2.409-2.739-3.621-4.101c-4.147,2.053-8.441,4.923-10.975,8.915c0.448,0.679,0.893,1.356,1.331,2.025
	c1.304,1.989,3.304,4.525,4.339,7.062C440.138,350.786,442.904,345.757,446.854,342.087z M122.383,468.67
	c-1.333,8.988-3.766,17.835-6.952,26.217c-0.266,0.699,0.258,1.011,0.919,1.036c2.058-4.203,4.073-8.809,4.529-11.544
	C121.244,482.184,121.812,475.835,122.383,468.67z M366.879,499.879l2.631,0.07c-0.105,0.78-2.963,1.358-2.869,0.442
	c0.639-6.245,1.418-12.474,2.212-18.701c-0.151-0.096-0.16-0.249,0.06-0.472c0.002-0.018,0.005-0.036,0.007-0.053
	c-0.562,0.299-0.812-0.713-1.361-1.481c-11.083-15.476-24.737-31.202-30.541-49.648c-7.593-24.133-2.95-51.202-1.745-75.978
	c0.237-4.874,0.485-9.764,0.769-14.658c-5.764-2.397-9.796-8.62-12.532-13.943c-4.406-8.572-7.62-17.794-10.688-26.911
	c-0.129-0.385,0.031-0.724,0.329-0.979c-1.611-0.615-3.221-1.239-4.829-1.873c-0.211,0.241-0.443,0.466-0.585,0.641
	c-0.743,0.919-1.493,1.835-2.249,2.745c-0.764,0.918-1.652,2.322-2.766,3.141c0.001,0.008,0.006,0.015,0.007,0.023
	c2.737,17.485-2.815,36.622-9.368,52.7c-2.795,6.858-5.523,16.397-12.735,19.783c-1.442,0.678-5.342,1.711-7.942,1.177
	c0.303,2.862,0.646,5.744,0.969,8.665c1.383,12.535,2.454,25.121,2.765,37.733c0.385,15.625,0.246,32.05-4.17,47.188
	c-2.224,7.62-6.975,19.418-16.113,20.885c0.597,4.179,1.2,8.354,1.823,12.519c0.113,0.762-2.807,1.387-2.898,0.776
	c-0.014-0.09-0.026-0.181-0.04-0.271l1.362-0.019l-1.5-4l0.987-10.861c0.003,0.023,0.007,0.046,0.01,0.069
	c0.476-0.1,1.188-0.28,1.7-0.515c1.759-0.805,3.261-2.086,4.527-3.535c0.141-0.161,0.27-0.332,0.406-0.496
	c1.903-1.375,3.762-2.871,4.869-4.163c3-3.5,7-36.5,7.5-44s-1-52-3-62.5s1.5-32.5,1.5-32.5l-0.338,0.135
	c0.113-0.192,0.219-0.39,0.338-0.579c-0.111-0.087-0.17-0.195-0.16-0.325c-1.084,0.3-1.901,0.992-2.582,1.865l-2.258,0.903l-3.5,5
	l-0.454,0.14c0.263-0.417,0.513-0.844,0.745-1.281c-0.023,0.002-0.052,0.007-0.071,0.007c-2.609,0.021-5.014,1.769-7.525,3.182
	c-2.011,0.112-7.292,0.353-9.694-0.048c-3-0.5-9-5.5-20.5-11s-21.5-9-21.5-9l-4.5-2l5,20c0,0,0.832,1.997,1.816,4.938
	c-0.255,0.191-0.559,0.392-0.917,0.589c-0.013-0.044-0.022-0.088-0.034-0.132c-0.03,0.074-0.079,0.149-0.138,0.224
	c-1.071,0.556-2.573,1.042-4.563,1.042c-4.667,0-10-0.667-10-0.667l4.667,8l8,22l5.419,22.222c-0.132,0.074-0.276,0.143-0.437,0.198
	c-0.003,0.65-0.032,1.302-0.071,1.952l-2.242,7.134c0,0-0.292-4.961-0.918-11.492c-0.088-4.84-0.702-9.596-1.731-14.272
	c-0.652-4.233-1.432-8.218-2.351-11.236c-3.5-11.5-24-46.5-24-46.5l-9.5-4l-24,24c0,0-19.5,38-19.5,40s-12,14-12,14l0.61,1.356
	c-0.215,0.219-0.292,0.606-0.142,1.247c0.488,2.087,1.53,3.886,2.525,5.773c0.727,1.377,1.436,2.772,2.108,4.186l5.397,22.938
	c0,0-0.359,5.316-0.859,12.241c-0.004-3.041-0.149-6.077-0.464-9.097c-12.597,5.864-24.819-9.745-30.651-19.2
	c-7.433-12.053-12.184-25.771-20.061-37.531c-0.166-0.248-0.142-0.49-0.008-0.707c-7.43-4.687-14.131-10.07-19.898-16.734
	c-2.854-3.299-7.568-6.946-8.695-11.345c-0.73-2.847,1.147-5.219,4.098-5.18c1.235,0.016,2.419,0.547,3.502,1.344
	c-0.099-1.506,0.063-3.066,0.583-4.669c0.263-0.811,1.632-1.053,2.342-0.947c2.021,0.299,3.695,1.184,5.127,2.403
	c-0.61-2.579-0.786-5.261-0.447-8.185c0.099-0.857,1.208-1.305,1.962-1.189c2.709,0.418,4.689,2.194,6.262,4.475
	c-0.026-2.032,0.265-4.066,0.98-6.046c0.304-0.838,1.821-1.206,2.502-0.67c4.904,3.855,8.221,10.448,9.237,16.669
	c0.367-0.899,0.617-1.853,0.665-2.938c-0.033-0.072-0.048-0.155-0.024-0.256c0.006-0.024,0.012-0.05,0.017-0.074
	c0.004-0.318,0.011-0.633-0.021-0.976c-0.02-0.216,0.139-0.413,0.388-0.578c0.596-2.371,1.554-5.063,4.015-5.723
	c1.575-0.422,3.03,0.133,3.688,1.693c1.602,3.797,0.752,7.75,0.041,11.65c-1.141,6.266-1.938,12.398,0.985,18.298
	c0.06,0.119,0.037,0.242-0.032,0.361c2.738,2.825,5.645,5.624,8.43,8.538c-3.615-9.183-5.485-18.919-3.818-28.502
	c0.033-0.188,0.074-0.371,0.109-0.558c0.314-3.37,1.066-6.319,2.547-8.068c5.609-12.301,17.808-19.635,31.088-23.568
	c0.025-0.155,0.057-0.338,0.092-0.55c-0.357-0.016-0.633-0.121-0.688-0.355c-2.98-12.568,10.556-26.496,23.028-23.205
	c-0.471-6.233,0.066-13.705,4.694-17.931c-0.171-0.064-0.303-0.166-0.361-0.32c-1.217-3.211-2.54-6.379-3.148-9.763l1.296-0.309
	l3.434,5.838c0.34,0.917,0.693,1.831,1.045,2.746c0.091-0.035,0.165-0.078,0.271-0.106c0.068-0.018,0.136-0.039,0.203-0.057
	l0.047,0.079l0.744-0.299c16.195-4.417,30.835-12.959,46.68-18.378c0.134-0.046,0.244-0.057,0.361-0.078
	c-0.089-0.116-0.167-0.238-0.252-0.356l0.967-0.389l-4-8.5l27-7.5l-57-1.5l-0.357,0.295c0.311-0.417,0.852-0.8,1.414-0.88
	c0.01-0.006,0.02-0.013,0.029-0.019c0.62-0.384,1.58-0.287,2.106,0.041c18.161,0.385,36.338,0.354,54.487,1.206
	c1.961,0.092,0.413,2.186-1,2.119c-0.557-0.026-1.114-0.044-1.671-0.068c-7.74,2.192-15.475,4.429-23.177,6.771
	c0.923,1.74,1.695,3.558,2.647,5.273c0.237,0.024,0.427,0.101,0.52,0.258c4.06,6.876,8.623,13.508,11.924,20.805
	c2.907,6.428,6.19,14.873,3.459,21.932c-1.919,4.962-5.595,7.865-10.234,10.193c-0.069,0.035-0.134,0.07-0.202,0.104
	c0.314,0.006,0.59,0.082,0.752,0.259c3.895,4.252,3.775,10.584,0.424,15.123c-0.293,0.396-1.199,0.646-1.911,0.653
	c-0.13,0.274-0.21,0.436-0.21,0.436l-1.324-0.248c9.749,3.697,19.473,7.597,28.021,13.645c2.606,1.844,5.188,3.947,8.073,5.349
	c5.062,2.459,9.261,1.64,13.924-1.028c1.818-1.041,3.647-1.725,5.658-1.941c0.705-1.402,1.395-2.816,2.396-4.032
	c1.764-2.141,4.045-3.199,6.721-3.324c4.47-4.951,6.006-12.663,6.874-18.992c0.93-6.786,1.544-14.127-0.135-20.847
	c-0.03-0.119-0.021-0.231,0.005-0.34c-1.453-3.735-4.018-7.047-5.711-10.673c-0.577-1.237-1.379-2.919-1.861-4.65
	c-0.17-0.006-0.32-0.031-0.44-0.074c0.007,0.022,0.013,0.045,0.019,0.068c-1.941-1.111-4.456-1.639-6.553-2.389
	c-1.4-0.501-3.43-0.893-4.901-1.67c-0.64,0.133-1.286,0.075-1.464-0.339c-1.992-4.635,1.85-12.443,6.092-14.424
	c6.977-3.258,15.856,0.892,22.317,3.961c2.938-1.579,6.463-1.667,9.565,0.248c0.354,0.219,0.47,0.479,0.43,0.736
	c1.429,0.172,2.851,0.656,4.163,1.485c0.042,0.026,0.035,0.071-0.005,0.125c1.453,0.276,2.665,1.328,3.216,3.531
	c0.011,0.045,0.01,0.088,0.015,0.132c0.655-0.286,1.328-0.498,1.997-0.612c-0.629-5.724,1.001-11.388-0.415-17.056
	c-0.002-0.007,0-0.014-0.001-0.021c-3.86-5.386-6.313-11.931-8.32-18.177c-2.109-6.561-4.042-13.417-4.317-20.341
	c-0.103-2.562,0.348-7.008,3.941-6.824c-0.248-1.796-0.256-3.625,0.164-5.51c0.463-2.079,1.179-4.123,3.527-4.5
	c0.451-0.072,0.843-0.044,1.191,0.055c0.295-1.606,1.099-2.813,2.662-3.35c2.725-0.934,4.723,0.316,6.259,2.595
	c0.022-0.063,0.034-0.129,0.059-0.191c0.843-2.189,4.098-2.729,5.826-1.361c3.579,2.834,5.145,8.574,6.451,12.713
	c1.196,3.792,2.255,7.641,3.091,11.532c1.476-3.218,2.496-6.691,4.387-9.7c0.928-1.477,2.023-2.797,3.848-3.045
	c2.026-0.275,2.648,1.773,3.006,3.349c0.072,0.322-0.128,0.611-0.449,0.835c-1.802,6.708-1.079,13.813-3.144,20.421
	c-1.774,5.682-6.217,9.882-6.614,16.065c0.088,0.043,0.163,0.099,0.207,0.178c0.071,0.128,0.115,0.284,0.176,0.424
	c0.23,0.119,0.332,0.291,0.2,0.484c0.377,1.138,0.522,2.481,0.781,3.551c0.856,3.534,1.742,7.063,2.744,10.56
	c2.502,8.736,5.468,17.365,9.663,25.439c0.597-0.346,1.291-0.605,2.129-0.733c0.842-0.128,1.607-0.083,2.303,0.103
	c-0.61,0.034-1.303,0.583-2.008,1.417c-0.668-0.093-1.176,0.27-1.564,0.859c0.026,0.048,0.05,0.098,0.076,0.146
	c0.081,0.148-0.115,0.347-0.437,0.531c-0.344,0.787-0.563,1.745-0.716,2.571c-1.315,2.449-2.297,4.786-2.297,4.786l-3,31.5
	c0,0-2.5,46.5-3.5,54.5c-0.479,3.833,0.764,15.014,2.188,25.621c0.14,1.249,0.294,2.497,0.484,3.74
	c0.034,0.227,0.085,0.446,0.122,0.672c1.368,9.739,2.705,17.967,2.705,17.967l29.5,46L366.879,499.879z M108.49,401.054
	c0.12,0.247,0.24,0.494,0.354,0.743c0.419,0.686,0.839,1.372,1.269,2.047L108.49,401.054z M105.276,395.531
	c0.078,0.147,0.159,0.293,0.237,0.44c0.04,0.058,0.08,0.114,0.119,0.171L105.276,395.531z M74.791,385.797
	c4.065-1.328,6.951-4.597,10.409-6.979c0.208-0.144,0.481-0.229,0.767-0.269c-0.131-0.214,0.025-0.452,0.328-0.662
	c-2.656-6.242-1.43-12.685-0.239-19.232c0.521-2.867,1.151-6.194-0.031-8.997c-1.481-3.51-2.146,1.609-2.555,3.541
	c-0.04,2.588-1.034,4.526-2.628,6.763c-3.084,4.33-3.281,8.819-3.222,14c0.011,0.928-2.891,1.404-2.898,0.776
	c-0.05-4.384-0.308-8.982,2.229-12.83c0.413-0.626,0.816-1.214,1.204-1.793c-0.491-0.017-0.896-0.232-0.944-0.715
	c-0.543-5.466-2.966-11.549-6.905-15.656c-0.783,4.53,0.555,9.359,2.631,13.381c0.555,1.074-1.018,1.965-2.014,1.74
	c-0.592,0.156-1.216,0.058-1.463-0.448c-1.706-3.495-3.759-10.705-7.709-12.996c-0.202,4.872,1.115,9.013,3.722,13.355
	c0.317,0.529,0.079,1.022-0.365,1.356c0.024,0.05,0.052,0.1,0.076,0.149c0.392,0.773-2.417,1.726-2.898,0.776
	c-1.776-3.508-4.061-7.824-7.847-9.436c-1.205,6.371,3.079,12.059,8.383,15.419c1.125,0.712-1.567,1.829-2.318,1.353
	c-2.525-1.599-4.842-3.682-6.524-6.1c-0.368-0.021-0.679-0.141-0.812-0.407c-0.806-1.614-1.973-3.174-3.315-4.386
	c-1.421-1.282-4.524-2.518-3.211,0.728c1.327,3.28,3.892,5.971,6.26,8.538C59.652,374.088,66.332,380.453,74.791,385.797z
	 M112.695,412.653c-0.395-0.721-0.737-1.471-0.969-2.238c-0.371,0.014-0.69-0.062-0.837-0.271c-1.271-1.813-2.533-3.693-3.765-5.633
	c-0.23-0.051-0.408-0.156-0.481-0.338c-0.196-0.491-0.413-0.969-0.632-1.448c-1.204-1.966-2.37-3.986-3.474-6.053
	c-4.315-6.228-10.183-11.526-15.417-16.902c-0.028,0.021-0.049,0.042-0.081,0.064c-3.893,2.681-7.024,5.99-11.555,7.509
	c6.334,9.674,10.757,20.748,16.241,30.901c2.76,5.111,5.867,9.875,9.651,14.302c4.518,5.286,12.909,14.792,20.72,10.529
	c0.21-0.114,0.482-0.177,0.768-0.2c-0.652-5.253-1.799-10.451-3.526-15.526C117.596,422.226,115.289,417.399,112.695,412.653z
	 M219.035,305.614c6.271-13.389-4.947-29.149-12.396-40.949c-0.171,0.237-0.464,0.463-0.913,0.617
	c-9.794,3.349-19.114,7.887-28.63,11.912c0.036,0.053,0.073,0.108,0.116,0.173c7.572,3.006,8.563,17.414,5.613,23.669
	c-0.191,0.405-0.756,0.696-1.338,0.796c-0.107,0.539-0.109,0.547-0.109,0.547s-0.146-0.214-0.404-0.517
	c-0.342-0.016-0.652-0.104-0.847-0.305c-1.219-1.257-3.234-1.746-5.088-1.528c-0.218,0.098-0.437,0.209-0.661,0.349
	c-1.672,1.045-2.899,2.702-3.552,4.313c0.024,0.151,0.03,0.295,0.07,0.454c1.13,4.511,5.901,4.829,9.567,3.048
	c0.539-0.262,1.747-0.456,2.038,0.268c2.804,6.982,0.853,15.273-1.845,22.044c0.021,0.027,0.045,0.05,0.062,0.081
	c4.172,7.451,8.738,15.076,12.997,22.911c3.796,0.055,8.145,0.881,11.6-1.036c0.651-0.362,1.347-0.258,1.717,0.051
	c-2.342-7.85-6.176-15.064-7.888-23.146c-0.283-0.02-0.474-0.093-0.471-0.23c0.14-5.45,1.778-10.298,6.583-13.295
	C210.065,312.843,216.438,311.16,219.035,305.614z M310.661,255.219c5.589-0.473,10.994-1.325,16.304-3.117
	c-0.014-0.026-0.021-0.059-0.035-0.084c-0.018-0.031-0.021-0.064-0.016-0.098c-0.147-0.137-0.232-0.327-0.216-0.58
	c0.429-6.689,5.73-11.153,7.052-17.468c1.379-6.59,0.969-13.324,2.928-19.824c0.022-0.075,0.058-0.147,0.102-0.216
	c-0.099-0.435-0.233-0.881-0.447-1.25c-0.027,0.039-0.053,0.075-0.085,0.12c-0.989,1.408-1.751,2.968-2.464,4.529
	c-1.338,2.929-2.316,6.227-4.049,8.955c-0.332,0.522-1.576,0.81-2.302,0.673c-4.103,4.131-7.372,9.917-6.854,15.884
	c0.08,0.922-2.836,1.496-2.898,0.776c-0.485-5.59,2.182-11.039,5.84-15.214c-4.843,0.981-9.949,3.261-13.42,6.785
	c-0.945,0.961-3.729,0.389-2.441-0.918c4.152-4.218,10.147-7.037,15.942-8.079c0.743-0.134,1.278,0.141,1.525,0.531
	c0.216-0.159,0.616-0.29,1.05-0.374c-1.318-6.994-3.152-14.295-6.159-20.763c-0.744-1.599-1.517-3.394-2.793-4.657
	c-1.92-1.897-1.541,2.536-1.402,3.432c0.789,5.096,2.437,10.006,3.757,14.979c0.295,1.11-2.604,1.885-2.898,0.776
	c-0.086-0.323-0.183-0.659-0.285-1c-0.09-0.066-0.167-0.146-0.215-0.25c-1.51-3.29-2.23-6.93-3.312-10.372
	c-0.606-1.927-1.198-3.902-2.073-5.729c-0.207-0.433-3.266-5.503-3.559-2.099c-0.617,7.141,4.141,14.405,5.842,21.173
	c0.264,1.048-2.638,1.812-2.898,0.776c-0.678-2.697-4.307-9.96-5.611-15.963c-0.195-0.045-0.338-0.137-0.389-0.287
	c-0.235-0.781-0.523-1.542-0.863-2.283c-0.212-0.167-0.367-0.323-0.491-0.471c-0.197,0.547-0.339,1.116-0.433,1.671
	c-0.422,2.517-0.347,4.854,0.261,7.326c0.152,0.62,0.329,1.233,0.515,1.844c1.321,2.513,2.104,5.948,2.733,8.233
	c0.022,0.082,0.048,0.163,0.069,0.245c0.123,0.437,0.242,0.837,0.357,1.159c0.061,0.168,0.037,0.329-0.035,0.479
	c-0.012,0.026-0.021,0.053-0.039,0.079c-0.29,0.458-1.099,0.777-1.787,0.771c-0.525,0.059-0.973-0.018-1.037-0.303
	c-0.07-0.313-0.151-0.624-0.233-0.935c-0.727-2.12-1.346-4.28-2.154-6.37c-0.45-1.164-1.976-6.094-2.463-3.615
	c-0.821,4.178,0.208,8.826,1.14,12.907C301.893,236.522,304.89,247.148,310.661,255.219z M304.778,283.599
	c1.663,1.359,5.322-5.126,6.039-7.262c-0.037-0.026-0.075-0.052-0.105-0.085C307.244,272.375,301.263,280.728,304.778,283.599z
	 M300.614,272.807c-1.324,0.665-2.526,1.817-3.091,3.209c-0.474,1.166-1.282,3.711,0.145,4.618c1.434,0.911,2.927-1.054,3.641-2.063
	c0.122-0.173,0.297-0.303,0.494-0.401c0.622-1.003,1.48-1.927,2.473-2.685c-0.348-0.087-0.625-0.292-0.716-0.655
	C303.185,273.328,302.289,271.965,300.614,272.807z M296.487,269.95c-0.883,0.047-1.747,0.409-2.55,1.271
	c-0.902,0.97-1.748,2.026-2.147,3.312c-0.438,1.407-0.626,5.953,2.169,4.457c0.006-0.003,0.012-0.005,0.018-0.008
	c-0.012-1.11,0.287-2.278,0.774-3.304c0.91-1.917,2.981-3.786,5.152-4.683c-0.735-0.422-1.499-0.774-2.265-0.945
	C297.231,270.145,296.814,270.132,296.487,269.95z M288.632,276.178c0.098-0.523,0.25-1.031,0.444-1.484
	c1.188-2.77,3.402-4.617,5.943-5.412c-2.495-0.785-5.132,0.177-6.816,2.378C287.059,273.154,286.113,275.9,288.632,276.178z
	 M299.829,303.02c-0.001-0.005,0.001-0.01,0-0.015c-5.015,1.635-10.276,0.517-14.737-2.251c0.998,6.386,0.417,13.299-0.641,19.508
	c-0.992,5.827-2.434,12.583-6.159,17.473c-0.032,0.133-0.118,0.285-0.288,0.46c-2.897,2.98-4.223,7.198-5.011,11.197
	c-1.578,8.007-1.334,15.723-0.606,23.538c0.403,0.061,0.751,0.251,0.905,0.621c0.563,1.349,6.246-0.504,7.028-0.97
	c3.432-2.044,5.016-6.209,6.646-9.68c3.056-6.498,5.715-13.195,7.822-20.063C298.661,330.219,301.902,316.261,299.829,303.02z
	 M300.574,301.586C300.381,301.708,300.375,301.771,300.574,301.586L300.574,301.586z M306.208,294.854
	c-6.856-2.736-13.659-5.626-20.292-8.654c-0.539,0.145-1.079,0.174-1.334-0.042c-2.242-1.898-3.334-4.876-5.063-7.19
	c-0.323-0.432-1.922-2.965-2.439-1.705c-0.549,1.336-0.594,2.74-0.247,4.145c1.468,5.942,5.664,10.531,7.75,16.149
	c0.139,0.012,0.256,0.045,0.334,0.112c3.864,3.311,10.025,6.643,15.193,4.268c0.113-0.148,0.294-0.282,0.51-0.396
	c0.051-0.049,0.103-0.099,0.176-0.179c0.188-0.208,0.439-0.5,0.648-0.744c0.646-0.755,1.283-1.519,1.915-2.287
	c0.599-0.726,1.194-1.454,1.785-2.187c0.126-0.155,0.25-0.312,0.374-0.467c0.021-0.052,0.048-0.104,0.096-0.162
	c0.075-0.09,0.151-0.186,0.229-0.279c0.041-0.076,0.06-0.115,0.053-0.062c0.085-0.101,0.172-0.199,0.265-0.285
	C306.172,294.879,306.191,294.866,306.208,294.854z M319.741,297.891c-1.208-1.635-1.779-3.758-1.37-6.319
	c0.645-4.033,3.757-6.496,7.363-7.595c-2.596-1.2-5.254-2.273-7.926-3.291c-1.487-0.567-2.977-1.128-4.479-1.652
	c-0.14-0.048-0.44-0.122-0.749-0.201c-0.995,1.767-2.397,3.415-3.721,4.583c-1.955,1.726-5.545,3.396-7.35,0.578
	c-0.376-0.587-0.593-1.203-0.687-1.827c-1.433,0.875-3.085,1.295-4.608,0.563c-1.248-0.599-1.9-1.604-2.136-2.752
	c-1.558,0.595-3.374,0.957-4.473-0.002c-0.468-0.408-0.748-0.93-0.911-1.497c-1.799-0.049-4.196-0.582-4.586-2.697
	c-0.336-1.828,0.493-3.689,1.639-5.087c0.391-0.477,0.813-0.913,1.26-1.311c-5.163-2.458-17.026-8.54-21.133-2.432
	c-1.475,2.191-3.26,6.92-2.525,9.95c0.257,0.003,0.481,0.056,0.629,0.178c1.156,0.955,4.565,1.69,6.286,2.305
	c1.056,0.376,2.226,0.701,3.354,1.087c-0.062-1.294,0.199-2.517,1.045-3.488c5.208-5.981,8.941,3.935,11.982,7.468
	c0.266-0.036,0.5-0.03,0.652,0.04C297.822,289.328,308.801,293.822,319.741,297.891z M313.569,277.104
	c0.001,0,0.001-0.001,0.002-0.001c-0.01-0.006-0.021-0.012-0.03-0.019C313.553,277.091,313.559,277.098,313.569,277.104z
	 M327.963,291.124c-0.505-0.174-0.426,1.765-0.355,1.948c0.619,1.609,2.157,0.193,2.533-0.737c0.558-1.379,0.396-3.058-0.967-3.922
	c-3.154-2-5.523,1.935-4.77,4.752c0.676,2.521,3.644,5.095,6.352,3.529c1.875-1.084,3.557-3.834,3.15-6.143
	c-0.057-0.218-0.113-0.437-0.182-0.649c-0.041-0.109-0.08-0.219-0.133-0.325c-0.016-0.031-0.01-0.059-0.02-0.089
	c-0.938-2.535-2.74-4.515-5.622-4.938c-0.357,0.081-0.692,0.1-0.917,0.021c-9.367,1.284-6.802,17.09,2.966,15.922
	c2.479-0.296,3.696-2.825,4.092-5.394c-1.411,2.026-3.754,3.434-6.122,3.002c-4.659-0.849-6.981-6.537-3.448-10.066
	c1.662-1.66,4.293-1.633,6.077-0.223c2.019,1.597,1.496,4.321,0.008,6.044c-1.438,1.665-4.324,1.404-4.543-1.041
	c-0.148-1.641,0.976-3.286,2.732-2.681C329.667,290.434,328.594,291.342,327.963,291.124z M336.203,336.677
	c0.723-11.829,1.7-23.667,3.402-35.343c0.35-2.392,0.541-5.245,1.666-7.37c-4.611-8.478-7.844-17.653-10.44-26.928
	c-0.98-3.503-1.892-7.023-2.743-10.56c-0.229-0.949-0.373-2.114-0.664-3.161c-5.31,1.745-10.697,2.676-16.256,3.219
	c-0.011,0.019-0.018,0.039-0.03,0.058c1.104,5.557-0.462,11.062,0.28,16.673c0.021,0.165-0.045,0.319-0.162,0.459
	c0.727,0.231,1.399,0.634,1.984,1.232c0.39,0.062,0.652,0.253,0.588,0.615c-0.082,0.457-0.225,0.92-0.392,1.384
	c1.786,0.231,3.732,1.272,5.272,1.853c3.574,1.346,7.143,2.737,10.582,4.401c0.188,0.09,0.264,0.199,0.27,0.313
	c0.281-0.077,0.531-0.12,0.686-0.099c5.118,0.684,7.603,6.091,6.758,10.85c-0.803,4.525-4.538,7.586-9.206,7.388
	c-0.878-0.037-1.724-0.164-2.534-0.356c-0.54,0.202-1.129,0.319-1.43,0.211c-2.601-0.928-5.209-1.89-7.817-2.868
	c2.739,8.112,5.633,16.253,9.361,23.967C327.748,327.521,331.229,333.752,336.203,336.677z M145.45,267.653
	c-5.559,3.97-11.092,7.934-15.769,13.005c-1.236,1.342,1.551,1.774,2.42,0.832c0.043-0.046,0.088-0.087,0.131-0.133
	c0.443-0.008,0.916-0.11,1.205-0.31c2.803-1.936,5.847-3.407,8.986-4.68l-10.545,2.511L145.45,267.653z M212.027,402.181l0.6-1.909
	c0.269-1.6,0.422-3.232,0.525-4.85c-0.523-5.788-1.773-20.32-1.773-27.042c0-3.677-0.936-8.006-1.997-11.738
	c0.276,7.095,0.885,20.661,1.828,30.566C211.766,393.038,211.973,398.171,212.027,402.181z M374.409,459.082
	c1.072-9.885,1.339-19.816,2.525-29.688c1.289-10.73,2.946-21.424,4.78-32.073c1.319-7.662,2.184-16.179,5.132-23.439
	c0.279-0.687-2.541-0.366-2.873,0.452c-2.812,6.924-3.647,15.001-4.935,22.304c-1.884,10.69-3.508,21.435-4.855,32.206
	c-1.214,9.702-1.496,19.454-2.488,29.177c-0.649,6.362-1.445,12.706-2.255,19.049c-1.576-2.17-3.538-4.414-3.907-4.916
	c-5.967-8.105-11.793-16.323-16.998-24.943c-5.63-9.323-9.611-19.034-11.361-29.8c1.368,9.739,2.705,17.967,2.705,17.967l29.5,46
	l-2.5,18.5l2.631,0.07c0.001-0.003,0.004-0.007,0.004-0.011C370.91,486.293,372.931,472.719,374.409,459.082z M379.41,326.156
	c7.316,2.761,14.897,4.226,22.428,5.891C395.356,330.368,386.549,328.071,379.41,326.156z M337.879,332.879c0,0-2.5,46.5-3.5,54.5
	c-0.479,3.833,0.764,15.014,2.188,25.621c-1.399-12.575-0.338-25.417,0.507-37.973c1.229-18.234,1.789-36.48,3.344-54.699
	c0.636-7.462,1.285-14.963,2.527-22.353c0.057-0.34,0.129-0.833,0.23-1.383c-1.315,2.449-2.297,4.786-2.297,4.786L337.879,332.879z
	 M345.816,292.485c0.419,0.058,0.898,0.292,1.454,0.768c2.849,2.44,3.843,8.194,3.609,11.736c-0.002,0.029,0.007,0.052,0.009,0.079
	c-0.168,0.145-0.259,0.299-0.209,0.449c2.766,8.314,11.742,13.572,20.283,17.279c-9.271-5.153-15.985-13.618-17.584-14.417
	c-2-1-2-8.5-4-15.5c-0.227-0.792-0.513-1.284-0.838-1.555c-0.231-0.101-0.469-0.189-0.717-0.256
	C347.214,291.103,346.521,291.652,345.816,292.485z M520.146,420.236c-0.028,0.053-0.005,0.09,0.103,0.101
	c0.13,0.013,0.24,0.04,0.365,0.057c0.065,0.018,0.133,0.017,0.198,0.03c-2.981-2.184-5.433-5.545-5.433-5.545
	s-1.176-1.812-2.98-4.613c0.07,0.11,0.14,0.222,0.211,0.332C514.063,412.852,516.811,418.864,520.146,420.236z M526.879,431.379
	c0,0,0.184-3.015-0.596-5.69c0.17,2.069-0.484,4.472-1.613,6.729c-1.324,2.65-3.729,4.757-5.67,6.945
	c-3.189,3.596-6.249,7.304-9.254,11.055c-10.758,13.431-19.207,28.806-31.254,41.161c-1.887-15.606-2.623-31.457-3.658-47.075
	c-0.689-10.408-1.306-20.824-1.694-31.248c-0.133-3.558-0.233-7.119-0.218-10.679c0.005-1.13,0.032-2.261,0.104-3.389
	c0.156-2.501,0.645-0.552-1.439-0.865c1.492,0.224,2.923-1.917,0.977-2.209c-3.948-0.592-2.586,8.902-2.555,10.747
	c0.183,10.83,0.861,21.658,1.537,32.465c1.137,18.207,1.908,36.741,4.254,54.905c-0.102,0.097-0.198,0.197-0.301,0.293
	c-0.195,0.183,0.01,0.257,0.375,0.26c0.322,2.456,0.67,4.904,1.055,7.344c0.064,0.408,0.354,0.632,0.723,0.717l0.662,0.018
	c0.178-0.027,0.356-0.076,0.526-0.145l-1.96-7.84L526.879,431.379z M422.287,338.345c-2.843-1.315-5.741-2.372-8.672-3.282
	l9.264,2.316c0,0-0.762,3.806-1.893,9.832c-0.867,2.337-1.547,4.787-2.095,7.271c0.295-0.2,0.577-0.419,0.866-0.626
	c-0.127,0.696-0.256,1.41-0.387,2.136c-0.124,0.075-0.24,0.162-0.365,0.236c-0.135,0.08-0.316,0.14-0.516,0.183
	c-0.742,3.8-1.239,7.622-1.725,11.167c-0.543,3.959-0.986,7.932-1.365,11.912c-1.968,12.627-3.65,25.474-4.021,34.388
	c-1,24,2.5,51.5,2.5,51.5s9.5-60.5,10.5-62s10-34.5,10-34.5l11.5-24.5l4-2c0,0,41,32,44,38c0.802,1.604,2.717,4.822,5.084,8.668
	c-0.459-0.668-0.915-1.337-1.385-1.997c-7.025-9.868-17.801-17.338-27.027-25.004c-4.199-3.49-8.599-6.73-12.794-10.225
	c-1.879-1.565-3.994-3.191-5.802-5.039c1.982,7.714,5.768,14.971,8.963,22.21c0.354,0.803-1.141,1.484-2.139,1.301
	c-5.74,2.998-11.945,5.2-16.917,9.451c-0.148,0.127-0.489,0.245-0.879,0.336c3.157,7.396,6.207,14.837,10.356,21.748
	c0.454,0.756-0.257,1.441-1.076,1.675c-0.49,1.785-2.126,4.157-2.508,4.86c-3.593,6.618-7.367,13.137-11.096,19.679
	c-4.563,8.006-9.142,16.006-13.515,24.118c-2.575,4.779-5.956,9.93-7.35,15.242c0.028,0.105,0.047,0.215,0.076,0.319
	c0.192,0.694-0.674,1.245-1.515,1.362c-0.057,0.008-0.111,0.013-0.168,0.017c-0.023,0.001-0.047,0.005-0.07,0.006
	c-0.028,0.001-0.056,0.004-0.084,0.004c-0.699,0.163-1.479,0.027-1.712-0.598c-3.79-10.163-7.351-20.471-10.014-30.993
	c-2.227-8.797-3.688-17.77-5.78-26.604c-0.773-3.271-3.752-9.167-1.878-12.314c3.392-5.697,6.846-11.393,9.858-17.302
	c0.05-0.098,0.123-0.184,0.203-0.265c-3.73-4.652-5.658-11.205-11.25-14.006c-0.38-0.19-0.301-0.45-0.011-0.693
	c0.026-0.221,0.161-0.47,0.459-0.738c9.644-8.673,16.786-20.244,28.015-27.101C422.035,338.431,422.159,338.383,422.287,338.345z
	 M416.158,459.618c0.965-1.849,1.988-3.661,2.933-5.432c3.777-7.078,7.722-14.066,11.686-21.042
	c3.813-6.71,7.67-13.397,11.438-20.133c1.299-2.322,2.604-4.643,3.829-7.004c0.388-0.747,0.78-1.493,1.128-2.26
	c0.742-1.639-0.199-0.24,1.67-0.193c-1.379-0.035-1.521-1.117-0.9-1.738c-3.876-6.722-6.837-13.888-9.881-21.017
	c-0.385-0.9,0.971-1.575,1.981-1.412c5.368-4.278,11.93-6.5,17.89-9.813c-3.695-8.351-8.146-16.73-9.684-25.812
	c-6.262,6.52-9.475,16.792-12.242,24.998c-4.354,12.909-7.713,26.151-10.641,39.449c-2.777,12.615-5.215,25.315-7.182,38.083
	C417.516,450.629,416.662,455.128,416.158,459.618z M420.523,342.011c-9.099,6.736-15.678,16.478-23.957,24.151
	c5.392,3.187,7.273,9.61,11.206,14.233c0.232,0.273,0.015,0.579-0.382,0.826c-0.006,0.12-0.035,0.251-0.111,0.401
	c-3.014,5.909-6.463,11.609-9.859,17.303c-0.461,0.773-0.502,0.839-0.508,0.827c0.238,0.956,0.474,1.911,0.707,2.867
	c0.817,3.349,1.626,6.699,2.402,10.057c1.971,8.53,3.313,17.207,5.604,25.66c1.682,6.206,3.613,12.335,5.689,18.417
	c-0.184-3.533-0.208-7.075-0.336-10.441c-0.492-12.962-0.527-25.951-0.125-38.916c0.43-13.854,1.189-27.782,3.273-41.499
	C415.309,358.113,416.53,349.097,420.523,342.011z M254.879,499.379l0.987-10.861c-4.889-34.374-9.313-69.105-18.64-102.533
	c-0.189-0.68-3.084,0.11-2.898,0.776c10.604,38.008,14.871,77.7,20.688,116.636l1.362-0.019L254.879,499.379z M272.256,400.704
	c1.664,19.674,2.482,39.928-0.781,59.493c-1.36,8.153-3.537,17.311-8.965,23.845c1.903-1.375,3.762-2.871,4.869-4.163
	c3-3.5,7-36.5,7.5-44s-1-52-3-62.5s1.5-32.5,1.5-32.5l-0.338,0.135c-3.844,6.532-4.235,15.493-4.341,22.616
	C268.518,375.958,271.218,388.427,272.256,400.704z M265.132,350.554c1.7-1.62,2.741-3.647,3.801-5.713
	c0.514-1.001,1.044-2.018,1.704-2.865l-2.258,0.903l-3.5,5l-0.454,0.14c-0.461,0.732-0.977,1.428-1.621,2.042
	C261.573,351.233,264.436,351.218,265.132,350.554z M212.627,400.271l-0.6,1.909c0.003,0.257,0.006,0.511,0.008,0.759
	C212.275,402.065,212.475,401.177,212.627,400.271z M118.167,495.09c5.745-15.109,8.901-30.758,8.038-46.962
	c-0.445-8.368-2.164-16.812-5.074-24.667c-0.631-1.704-1.365-3.375-2.149-5.021l5.397,22.938c0,0-0.359,5.316-0.859,12.241
	c0.007,5.024-0.396,10.059-1.137,15.05c-0.571,7.165-1.139,13.513-1.504,15.708c-0.456,2.736-2.472,7.342-4.529,11.544
	C117.072,495.951,117.96,495.635,118.167,495.09z M114.489,407.235l-0.61-1.356c0,0,12-12,12-14s19.5-40,19.5-40l24-24l9.5,4
	c0,0,20.5,35,24,46.5c0.919,3.019,1.698,7.003,2.351,11.236c-4.378-19.878-16.17-38.325-26.047-55.762
	c-0.085,6.797-1.813,13.437-4.231,19.77c-0.551,1.441-1.164,2.885-1.865,4.26c-0.866,1.701,3.947,3.011,4.795,3.274
	c2.01,0.624,3.979,1.242,5.892,2.085c0.124-0.548,0.247-1.097,0.372-1.646c0.308-1.341,3.281-1.668,2.943-0.194
	c-1.479,6.454-2.578,13.074-4.624,19.375c-0.506,1.558-1.808,4.353-0.5,5.898c1.63,1.927,4.074,2.893,6.134,4.262
	c7.916,5.261,13.582,12.075,18.924,19.645c0.096-0.891,0.169-1.783,0.21-2.675c-0.183-0.164-0.296-0.394-0.285-0.706
	c0.036-1.109,0.034-2.213,0.015-3.314c0.626,6.531,0.918,11.492,0.918,11.492l2.242-7.134c-0.02,0.32-0.037,0.641-0.063,0.96
	c0.271-0.654,0.572-1.294,0.856-1.943l0.962,3.944c0,0,0.159-2.391,0.166-6.465c4.499-9.522,10.502-18.374,17.66-26.034
	c-7.151-3.521-11.048-11.169-16.433-16.714c-0.193-0.199,0.184-0.506,0.718-0.751c0.021-0.156,0.101-0.333,0.277-0.536
	c3.211-3.704,5.709-8.041,9.253-11.437c-5.02-3.086-9.868-6.622-14.234-10.576c-2.093-1.896-4.428-3.98-6.275-6.351
	c2.063,6.907,5.409,13.327,7.178,20.311c1.499,5.918,2.239,12.04,2.705,18.118c0.529,6.896,0.794,13.844,0.464,20.757
	c-0.061,1.268-0.117,2.575-0.202,3.892c-0.523-5.788-1.773-20.32-1.773-27.042c0-3.677-0.936-8.006-1.997-11.738
	c-0.114-2.934-0.172-4.768-0.172-4.768s-0.328,0.43-1.015,0.944c-0.984-2.941-1.816-4.938-1.816-4.938l-5-20l4.5,2
	c0,0,10,3.5,21.5,9s17.5,10.5,20.5,11c2.402,0.4,7.684,0.16,9.694,0.048c-1.537,0.865-3.114,1.605-4.804,1.748
	c-5.639,0.476-10.306-2.346-14.762-5.524c-10.352-7.384-21.697-12.04-33.414-16.551c2.213,3.539,5.833,6.55,8.775,8.99
	c3.987,3.308,8.169,6.397,12.591,9.104c0.993-0.014,1.908,0.659,0.812,1.557c-4.1,3.355-6.67,8.248-10.108,12.214
	c-0.037,0.042-0.082,0.08-0.126,0.117c5.258,5.646,9.18,13.145,16.46,16.422c0.104,0.046-0.068,0.205-0.372,0.385
	c-0.02,0.031-0.037,0.061-0.069,0.095c-10.02,10.666-17.769,23.606-22.282,37.534c-0.289,0.894-3.17,1.29-2.885,0.411
	c0.08-0.249,0.17-0.495,0.253-0.743c-0.388-0.02-0.747-0.155-0.962-0.47c-3.438-5.053-6.84-10.288-11.138-14.671
	c-2.551-2.601-5.321-4.996-8.359-7.015c-2.117-1.407-4.718-2.511-6.595-4.244c-2.201-2.032-2.414-4.033-1.547-6.87
	c1.733-5.667,2.999-11.432,4.289-17.207c-0.354,0.066-0.691,0.062-0.926-0.053c-4.196-2.055-8.978-2.475-12.637-5.548
	c-0.205-0.172-0.123-0.484-0.025-0.678c4.09-8.029,6.767-17.229,6.541-26.295c-0.001-0.046,0.01-0.09,0.02-0.134
	c-5.452,4.079-12.074,6.103-17.59,10.152c-7.479,5.491-12.499,15.911-15.939,24.347c-5.685,13.936-9.77,29.083-20.244,40.373
	c-0.093,0.101-0.227,0.186-0.382,0.257c0.247,0.183,0.319,0.387,0.26,0.588c2.423,3.813,5.3,7.374,6.619,11.763
	c0.2,0.667-2.687,1.482-2.898,0.776c-1.331-4.431-4.252-8.018-6.688-11.873C118.326,408.184,115.318,406.39,114.489,407.235z
	 M177.393,331.645c0.034-0.009,0.068-0.019,0.104-0.027c-0.002-0.02-0.006-0.039-0.004-0.061
	C177.459,331.586,177.426,331.617,177.393,331.645z M152.879,273.879l-1.296,0.309c-0.061-0.337-0.122-0.674-0.168-1.016
	c-0.003-0.026,0.003-0.051,0.004-0.078c-3.005,1.056-6.042,2.077-8.995,3.274l-10.545,2.511l13.571-11.226
	c2.008-1.434,4.018-2.868,5.993-4.356c3.941-2.968,7.463-6.411,11.065-9.754l9.212-7.62c0.08-0.055,0.155-0.117,0.236-0.171
	c0.018-0.026,0.045-0.051,0.064-0.078l0.357-0.295l57,1.5l-27,7.5l4,8.5l-0.967,0.389c-1.679-2.333-2.678-5.036-4.055-7.552
	c-8.226,2.534-16.41,5.198-24.516,8.081c-7.6,2.704-15.143,5.557-22.717,8.327c0.104,0.065,0.173,0.153,0.188,0.271
	c0.338,2.539,1.118,4.943,1.999,7.322L152.879,273.879z M175.722,262.7c15.548-5.497,31.347-10.276,47.202-14.811
	c-16.279-0.6-32.576-0.612-48.862-0.964c-7.587,5.089-13.361,12.272-20.703,17.667c-5.853,4.301-11.989,8.268-17.386,13.121
	c4.856-2.51,10.125-4.16,15.269-6.04C159.404,268.69,167.526,265.598,175.722,262.7z M157.879,282.379l0.744-0.299
	c-0.264,0.072-0.525,0.151-0.791,0.22L157.879,282.379z M212.027,402.181c-0.055-4.01-0.262-9.143-0.817-14.974
	c-0.943-9.905-1.552-23.471-1.828-30.566c-0.392-1.377-0.801-2.673-1.187-3.824c-0.255,0.191-0.559,0.392-0.917,0.589
	c1.521,5.482,2.103,11.284,2.612,16.922c0.65,7.175,0.855,14.413,0.578,21.611c-0.106,2.764-0.221,5.726-0.693,8.582
	c-1.004-15.857-7.388-30.8-14.992-45.043c4,0.17,8.19,0.458,11.758-1.522c0.266-0.148,0.445-0.303,0.565-0.457
	c-1.071,0.556-2.573,1.042-4.563,1.042c-4.667,0-10-0.667-10-0.667l4.667,8l8,22l5.419,22.222c0.078-0.044,0.148-0.09,0.212-0.14
	L212.027,402.181z M211.876,411.207c0,0,0.159-2.391,0.166-6.465c-0.394,0.833-0.758,1.678-1.128,2.521L211.876,411.207z
	 M211.102,405.653c0.384-0.873,0.68-1.785,0.934-2.714c-0.002-0.248-0.005-0.501-0.008-0.759l-1.187,3.774
	C210.957,405.863,211.053,405.764,211.102,405.653z M209.21,351.873c0,0-0.328,0.43-1.015,0.944
	c0.386,1.151,0.795,2.447,1.187,3.824C209.268,353.707,209.21,351.873,209.21,351.873z M229.814,129.543
	C229.658,129.495,229.603,129.541,229.814,129.543L229.814,129.543z M302.379,111.879l-17.256,4.226
	c4.128-1.085,8.253-2.185,12.368-3.318c0.43-0.118,2.298-0.869,3.9-1.164c0.922-1.552,1.448-3.29,1.308-5.226
	c-0.321-4.402-3.145-8.092-6.646-10.612c-10.597-7.628-25.737-8.131-34.223,2.838c-0.017,0.021-0.04,0.04-0.061,0.06
	c-0.105,0.207-0.414,0.425-0.784,0.602c0.572-0.023,1.005,0.11,0.859,0.445c-2.711,6.257-8.919,9.21-15.317,10.378
	c-0.367,0.067-1.321,0.087-1.223-0.515c1.235-7.537,7.143-12.917,14.732-11.689c8.448-9.567,23.052-11.476,34.378-5.74
	c4.832,2.447,10.699,6.852,11.133,12.798c0.193,2.655-0.581,4.937-1.906,6.909c0.18,0.205,0.258,0.495,0.166,0.923
	c-0.794,3.677-3.253,7.296-5.069,10.52c-2.831,5.026-5.788,9.981-8.808,14.895c-1.247,2.029-2.391,4.465-3.953,6.31l6.9-15.641
	l2.028-3.63c0.526-0.923,1.052-1.847,1.566-2.776c0.22-0.397,0.435-0.798,0.654-1.197L302.379,111.879z M259.57,99.62
	c-0.022-0.003-0.049-0.004-0.07-0.009c-6.354-1.614-9.983,3.161-11.151,8.758c4.612-1.136,8.645-3.689,10.612-8.229
	C259.051,99.933,259.28,99.758,259.57,99.62z M289.379,151.879c1,3-6,10.5-6,10.5l-7,8.5l-11.5,10c0,0-6,3.5-13.5,8
	c-2.026,1.216-4.271,2.101-6.471,2.749c-2.092,0.792-4.18,1.294-6.148,1.308c-3.145,0.442-5.381,0.443-5.381,0.443l-5-4
	l-0.463,0.072c1.162,1.271,2.464,2.407,3.897,3.371c-0.065,0.155-0.017,0.305,0.221,0.428c0.203,0.105,0.41,0.199,0.618,0.289
	c-0.246,0.547,0.578,0.641,1.394,0.485c7.396,2.01,16.999-3.92,22.601-7.378c8.531-5.267,16.476-11.769,23.672-18.729
	c3.303-3.195,6.269-6.745,8.32-10.872c0.802-1.613,2.139-5.608,0.809-7.333c-0.343-0.445-0.777-0.765-1.283-0.98
	c-0.678-0.982-1.473-2.335-2.367-3.801l-0.418,0.946C285.379,145.879,288.379,148.879,289.379,151.879z M230.44,129.476
	c-0.309,0.056-0.508,0.069-0.626,0.067c0.043,0.014,0.094,0.037,0.149,0.07l0.929-0.228
	C230.741,129.414,230.592,129.448,230.44,129.476z M199.746,195.08c6.347-1.196,12.664-2.553,18.969-3.952
	c2.064-0.458,4.9-0.698,7.308-1.382l-36.144,5.633l39-65.5l0.984-0.241c-0.838-0.239-2.416,0.364-2.447,1.007
	c-0.6,2.049-2.908,4.649-4.102,6.514c-3.338,5.216-6.688,10.425-10.009,15.652c-7.388,11.624-14.889,23.268-21.367,35.432
	c-0.54,1.014-4.387,7.221-2.978,8.103C191.206,197.75,197.487,195.506,199.746,195.08z M228.879,129.879l0.984-0.241
	c0.057,0.016,0.119,0.025,0.168,0.049c0.014,0.005,0.024,0.011,0.037,0.016c0.008,0.004,0.016,0.008,0.023,0.013
	c0.014,0.006,0.025,0.014,0.038,0.021c-0.06-0.052-0.114-0.091-0.166-0.122l0.929-0.228c0.594-0.112,1.187-0.227,1.777-0.353
	c2.027-0.433,4.049-0.891,6.067-1.36c6.214-1.446,12.413-2.959,18.604-4.499c9.271-2.305,18.539-4.639,27.781-7.069l17.256-4.226
	l-5.251,9.397c0.896-1.626,1.78-3.261,2.567-4.941c0.092-0.197,0.187-0.396,0.28-0.597c-1.516,1.204-3.196,2.24-4.852,3.132
	c-0.513,0.276-3.438,0.608-2.211-0.054c2.341-1.261,4.983-2.965,6.937-5.125c-4.681,1.306-9.377,2.562-14.078,3.792
	c-13.152,3.444-26.333,6.791-39.553,9.967c-4.549,1.093-9.099,2.207-13.682,3.15c-0.489,0.101-1.555,0.444-2.598,0.629
	c-0.733,1.527-2.046,3.054-2.875,4.351c-2.783,4.358-5.583,8.705-8.365,13.064c-6.834,10.71-13.678,21.436-20.031,32.44
	c-2.323,4.022-4.817,8.1-6.551,12.423c-0.73,1.822-1.453,1.502,0.859,1.18c2.113-0.295,4.216-0.666,6.313-1.061
	c6.08-1.146,12.137-2.428,18.177-3.768c2.233-0.495,4.466-0.993,6.692-1.519c0.414-0.098,1.588-0.456,2.305-0.629
	c-1.604-2.137-2.862-4.542-3.749-7.047c-0.113-0.321,0.44-0.677,1.095-0.892c3.19-14.918,18.578-27.592,30.667-35.331
	c6.217-3.979,13.521-7.292,20.818-8.599c3.541-0.634,6.684,3.162,9.203,7.022c1.198-1.826,2.554-4.419,3.583-6.109
	c2.32-3.808,4.619-7.633,6.827-11.508l-2.028,3.63l-6.9,15.641c-0.084,0.1-0.164,0.205-0.251,0.3
	c0.023,0.039,0.045,0.075,0.069,0.113l-0.418,0.946c0,0,3,3,4,6s-6,10.5-6,10.5l-7,8.5l-11.5,10c0,0-6,3.5-13.5,8
	c-2.026,1.216-4.271,2.101-6.471,2.749c5.648-2.138,11.319-6.379,14.723-8.816c7.551-5.405,15.445-11.331,21.443-18.473
	c1.063-1.265,8.336-11.194,5.815-13.605c-0.438,0.036-0.839-0.05-1.039-0.314c-0.048-0.063-0.091-0.129-0.138-0.192
	c-2.873-0.467-7.073,2.056-9.324,3.249c-4.701,2.491-9.162,5.431-13.34,8.726c-10.767,8.492-19.916,18.724-27.153,30.362
	c0.914,0.265,1.874,0.378,2.864,0.371c-3.145,0.442-5.381,0.443-5.381,0.443l-5-4l-0.463,0.072
	c-0.084-0.092-0.174-0.179-0.256-0.272c-0.508,0.223-1.064,0.404-1.638,0.567l-36.144,5.633L228.879,129.879z M233.979,191.404
	c8.867-13.905,20.69-26.255,34.649-35.089c2.131-1.349,10.204-6.745,15.878-7.762c-1.922-2.731-3.714-5.582-5.838-8.138
	c-1.474-1.772-2.544-3.228-5.252-2.499c-1.457,0.393-2.899,0.815-4.314,1.35c-6.232,2.354-12.12,5.353-17.47,9.343
	c-10.313,7.692-23.085,18.921-25.192,32.329c-0.025,0.159-0.115,0.303-0.242,0.433C227.865,185.332,230.487,188.884,233.979,191.404
	z M77.383,430.569c-3.309,1.082-6.69,1.919-10,3c-1.971,0.644-0.096,0.975,0.992,0.619c3.309-1.082,6.69-1.919,10-3
	C80.346,430.544,78.471,430.214,77.383,430.569z M88.193,310.779c2.41-2.535,3.986-5.875,5.116-9.15
	c0.201-0.584-2.602-0.25-2.861,0.501c-1.082,3.139-2.572,6.418-4.884,8.85C84.938,311.638,87.707,311.29,88.193,310.779z
	 M49.951,277.513c0.688,0.052,1.477-0.167,2.049-0.549c2.841-1.895,5.74-3.774,8.199-6.164c0.488-0.475-0.424-0.574-0.707-0.558
	c-0.652,0.039-1.45,0.245-1.934,0.714c-2.333,2.269-5.104,4.038-7.801,5.836C49.285,277.109,49.394,277.471,49.951,277.513z
	 M512.144,297.311c0.8,0.522,1.724,0.835,2.579,1.255c0.605,0.298,1.508,0.041,2.049-0.281c0.391-0.232,0.877-0.792,0.264-1.093
	c-1.502-0.738-2.889-1.124-3.707-2.701c-0.502-0.967-3.309-0.014-2.898,0.776C510.86,296.096,511.354,296.796,512.144,297.311z
	 M247.328,213.491c-0.412-1.177-3.295-0.355-2.898,0.776c1.124,3.21,3.393,5.378,6.588,6.496c1.077,0.377,3.408-1.179,1.723-1.769
	C250.082,218.064,248.253,216.134,247.328,213.491z M258.325,306.689c-0.019,1.065-0.31,2.091-1.083,2.855
	c-0.775,0.766-1.869,1.092-2.934,1.13c-0.444,0.016-1.168-0.264-0.774-0.812c0.3-0.418,0.831-0.625,1.352-0.718
	c0.065-0.082,0.173-0.23,0.21-0.317c0.24-0.565,0.326-1.149,0.337-1.76c0.011-0.595,1.239-0.909,1.651-0.963
	C257.56,306.043,258.337,306.058,258.325,306.689z M255.449,309.083c-0.09,0.003-0.188,0.012-0.283,0.028
	C255.262,309.095,255.359,309.086,255.449,309.083z M385.328,254.491c0-2.333,0-4.667,0-7c0-0.556-2.898-0.113-2.898,0.776
	c0,2.333,0,4.667,0,7C382.43,255.823,385.328,255.38,385.328,254.491z M308.694,415.557c-3.665,3.617-7.639,6.629-12.419,8.612
	c-1.855,0.77-0.182,1.997,1.207,1.421c5.2-2.157,9.592-5.453,13.581-9.388C312.315,414.966,309.477,414.785,308.694,415.557z
	 M533.531,396.439c0.701,0.702,3.44-0.374,2.695-1.12c-0.23-0.231-0.679-0.654-0.773-0.828c-0.16-0.294-0.125-0.679-0.125-1
	c-0.001-0.598-1.365-0.383-1.637-0.311c-0.525,0.141-1.262,0.455-1.262,1.087c0,0.338-0.018,0.685,0.125,1
	C532.766,395.73,533.18,396.087,533.531,396.439z M496.207,348.562c0.723,0.058,1.484-0.243,1.897-0.847
	c0.81-1.183,1.977-1.721,3.392-1.605c0.669,0.055,1.553-0.224,1.897-0.847c0.345-0.622-0.295-1.02-0.843-1.065
	c-2.854-0.232-5.56,0.919-7.187,3.299C494.953,348.098,495.714,348.522,496.207,348.562z"></path>
</svg>