<?xml version="1.0" standalone="no"?>
<svg version="1.1" id="Layer_2" xmlns="http://www.w3.org/2000/svg" xmlns:xlink="http://www.w3.org/1999/xlink" x="0px" y="0px" viewBox="0 0 2000 2000" enable-background="new 0 0 2000 2000" xml:space="preserve">
<path id="color_x5F_10" fill="#1e2022" d="M673.8,916.1v83.6l-72.4-41.8L673.8,916.1z M746.3,874.2l72.5,41.9v-83.7L746.3,874.2z"></path>
<path id="color_x5F_9" fill="#1e2022" d="M746.3,1125.4l72.5-41.9v83.7L746.3,1125.4z M963.7,749.1l-72.5,41.4l72.5,41.9V749.1z
	 M963.8,999.8l72.5,42.1V874.2l-72.5,41.9L963.8,999.8L963.8,999.8z M746.3,1043l72.5,40.5V916.1L746.3,958V1043z M710.4,908.1
	l15.6,9v-60l-15.6,9V908.1z M798.7,706.4L605.4,818v89.3l16.7,9.8v-89.3l193.3-111.6L798.7,706.4z M1160.8,1156.4v-60l-15.6,9v41.9
	L1160.8,1156.4z M1056.9,1067.2l193.3-111.6l-16.7-9.8l-193.3,111.6v70.5l-149.4-86v167.4l217.9,125.3v-83.7l72.5-41.9l-124.3-71.6
	V1067.2z"></path>
<path id="color_x5F_8" fill="#52616b" d="M1250.2,1044.8l-73.7,42.6v60l-15.6,9v-60l-103.9,60v-89.3l193.3-111.6v89.3H1250.2z
	 M815.4,716.3L622.1,827.8v89.3l103.9-60v60l15.6-9v-60l73.7-42.6v-89.2H815.4z M890.8,1041.9l72.9-42.1v-83.7l-145-83.7v83.7v167.4
	v83.7l-72.5-41.9l144.6,83.5L890.8,1041.9L890.8,1041.9z M746.3,957.9L673.8,916v83.6l72.5,41.9V957.9z M963.7,749.1v83.2l72.5,41.9
	v167.7l15.3,8.9l181.9-105l16.7,9.8v89.3l-31.8,18.4l35.4,20.3l72.5-41.9l72.5,41.9l72.4-41.8L963.7,749.1z M1108.7,1334.6
	l72.5-41.9l-72.5-41.9V1334.6z"></path>
<path id="color_x5F_7" fill="#52616b" d="M401.9,701.9c56.7,34.1,91.7,8.8,103.1-2.2c2.5-2.4,3.3-6.4,2-9.8l-8.8-33.1
	c-37.8,21.6-72.5,12.7-91.6,4.2l10.6-40.1c28.1,10.2,56.8,2.1,70.6-3.2l4.5,16.8l-25.4-95.6c-0.6-1.7-1.7-3.1-3.1-4
	c-8.4-5.4-16.9-2.3-21.1,0c-1.7,0.9-3,2.5-3.7,4.5l-40.3,152C397.2,695.4,398.6,699.9,401.9,701.9z M453,538.6c5,0,9.1,1.5,9.1,3.4
	s-4.1,3.4-9.1,3.4s-9.1-1.5-9.1-3.4C444,540.2,448,538.6,453,538.6z M601.9,687.4c56.7,34.1,91.7,8.8,103.1-2.2
	c2.5-2.4,3.3-6.4,2-9.8l-8.8-33.1c-37.8,21.6-72.5,12.7-91.6,4.2l10.6-40.1c28.1,10.2,56.8,2.1,70.6-3.2l4.5,16.8l-25.4-95.6
	c-0.6-1.7-1.7-3.1-3.1-4c-8.4-5.4-16.9-2.3-21.1,0c-1.7,0.9-3,2.5-3.7,4.5l-40.3,152C597.1,680.9,598.6,685.4,601.9,687.4z
	 M653,524.1c5,0,9.1,1.5,9.1,3.4s-4.1,3.4-9.1,3.4s-9.1-1.5-9.1-3.4C643.9,525.7,648,524.1,653,524.1z M652.8,750.4l-86.2-49.8
	v-19.1l86.2,49.8l86.2-49.8v19.1L652.8,750.4z M452.8,764.9l-86.2-49.8V696l86.2,49.8L539,696v19.1l-21.8,12.6
	c-12.3-0.6-20,7.8-20,7.8c-0.7,0.7-1.2,2.4-1.3,4.5L452.8,764.9z M1688.9,1000.1l-72.5,41.9L674,497.8l72.5-41.9l474.3,273.8
	c-3.3,6.4-6.9,9.9-8.9,11.5c-1.3-1.3-3.4-0.9-3.4-0.9s-7,5.4-10.4,7.2s-5,5.4-5,5.4s-0.1,0.8-0.2,2l0,0c-0.4,1.2-0.5,2.5-0.2,4.1
	c0,0.1,0.1,0.2,0.1,0.4s0,0.4,0.1,0.6c0.2,2.4,0.9,4.6,2.6,5.5c2.5,1.4,4.2,5.2,6.7,9.9c0.2,0.5,0.5,1,0.8,1.5
	c1.3,2.5,2.9,5.2,4.9,7.9s4.3,4.5,6.7,5.4c0.7,0.3,1.4,0.5,2.1,0.7c0.9,0.2,1.8,0.3,2.7,0.3c3.2,0,5.8-1.2,6.7-2.7
	c0.1-0.1,0.1-0.2,0.1-0.4V788c0-0.1,0-0.3,0.1-0.4v-0.1c0-0.2,0-0.4,0-0.6c0,0,0,0,0-0.1c0-0.2,0-0.4-0.1-0.7V786
	c-0.8-5.5-5.9-17.3-7.6-24.1c-0.1-0.3-0.1-0.6-0.2-0.8l0,0c-0.1-0.3-0.1-0.5-0.1-0.7c0,0,0,0,0-0.1c0-0.2-0.1-0.4-0.1-0.6v-0.1
	c0-0.2-0.1-0.4-0.1-0.7c-0.4-6.2,2.4-3.7,2.7-9.1l13.5-12.3l13.5,7.8c2.9,13.7,6.9,35.8,6.4,36.6c0,0,0.7,0.6,1.8,1.3
	c0,0.4,0,0.8,0,1.1c-0.7,0.1-1.4,0.4-1.8,1.2c-1.5,2.7-3.9,7.1-4.9,11v0.1c0,0.2-0.1,0.4-0.1,0.5s-0.1,0.3-0.1,0.4
	c0,0.2-0.1,0.3-0.1,0.5s0,0.3-0.1,0.5c0,0.1,0,0.3,0,0.4c0,0.2,0,0.4,0,0.5s0,0.2,0,0.3c0,0.3,0,0.5,0,0.8l0,0
	c0.1,1.7,0.5,3.1,1.3,4.3c0.1,0.2,0.3,0.4,0.4,0.6c1.5,1.6,4,2.6,8.4,3.4c1.5,0.2,2.9,0.8,4.3,1.5c0.7,0.3,1.3,0.7,2,1.2
	c5,3.3,8.7,8.2,9,8.2s7.6,2.3,12.9,1.7c0.2,0,0.5-0.1,0.7-0.1c0.4-0.1,0.9-0.2,1.3-0.3c0.2-0.1,0.4-0.1,0.6-0.2
	c0.4-0.2,0.7-0.4,1-0.6c0.5-0.3,0.9-0.8,1.2-1.3c0.1-0.2,0.2-0.3,0.2-0.5c0-0.1,0-0.1,0.1-0.2c0-0.1,0.1-0.2,0.1-0.3s0-0.1,0-0.2
	c0-0.1,0-0.2,0-0.3s0-0.2,0-0.2c0-0.1,0-0.2,0-0.3s0-0.2,0-0.3s0-0.2-0.1-0.3c0-0.1,0-0.2-0.1-0.3c0-0.1-0.1-0.2-0.1-0.3
	s-0.1-0.2-0.1-0.3s-0.1-0.2-0.1-0.3s-0.1-0.2-0.1-0.3s-0.1-0.2-0.1-0.3v-0.1c-0.1-0.7-0.4-1.4-1-2c-0.3-0.3-0.8-0.8-1.5-1.4
	c-0.2-0.2-0.3-0.4-0.5-0.5l0,0c-0.2-0.2-0.4-0.4-0.5-0.6l0,0l0,0c-2.8-2.9-6.1-5.5-7.5-6.6c-0.4-0.4-0.8-0.7-1.2-1.1
	c-0.9-1.2-2.8-3.7-4.4-6.1c-0.1-0.1-0.2-0.3-0.3-0.4c-0.1-0.2-0.2-0.3-0.3-0.5c-0.1-0.1-0.2-0.3-0.2-0.4c-0.1-0.2-0.2-0.4-0.4-0.6
	c0-0.1-0.1-0.2-0.1-0.2c-0.2-0.3-0.3-0.5-0.4-0.8c0-0.1-0.1-0.1-0.1-0.2c-0.1-0.2-0.2-0.3-0.2-0.5c0-0.1-0.1-0.2-0.1-0.2
	c-0.1-0.1-0.1-0.3-0.1-0.4c0-0.1,0-0.1-0.1-0.2c0-0.2-0.1-0.3-0.1-0.5c0-0.3,0-0.6-0.1-1s-0.2-0.8-0.3-1.2c-0.2-0.7-0.4-1.3-0.7-2
	c-0.3-0.8-0.7-1.7-1.1-2.3c0.1,0,0.2-0.1,0.2-0.1l-0.3-26.1L1688.9,1000.1z M1491.2,1078.2l4.5,16.8l-25.4-95.6
	c-0.6-1.7-1.7-3.1-3.1-4c-8.4-5.4-16.9-2.3-21.1,0c-1.7,0.9-3,2.5-3.7,4.5l-40.3,152c-1.4,4,0.1,8.6,3.4,10.5
	c56.7,34.1,91.7,8.8,103.1-2.2c2.5-2.4,3.3-6.4,2-9.8l-8.8-33.1c-37.8,21.6-72.5,12.7-91.6,4.2l10.6-40.1
	C1448.7,1091.6,1477.5,1083.4,1491.2,1078.2z M1456.5,999.1c5,0,9.1,1.5,9.1,3.4s-4.1,3.4-9.1,3.4s-9.1-1.5-9.1-3.4
	C1447.4,1000.7,1451.5,999.1,1456.5,999.1z M1456.3,1206.2l86.2-49.8v19.1l-86.2,49.8l-86.2-49.8v-19.1L1456.3,1206.2z
	 M1371.2,1246.2l4.5,16.8l-25.4-95.6c-0.6-1.7-1.7-3.1-3.1-4c-8.4-5.4-16.9-2.3-21.1,0c-1.7,0.9-3,2.5-3.7,4.5l-40.3,152
	c-1.4,4,0.1,8.6,3.4,10.5c56.7,34.1,91.7,8.8,103.1-2.2c2.5-2.4,3.3-6.4,2-9.8l-8.8-33.1c-37.8,21.6-72.5,12.7-91.6,4.2l10.6-40.1
	C1328.7,1259.6,1357.5,1251.4,1371.2,1246.2z M1336.5,1167.1c5,0,9.1,1.5,9.1,3.4s-4.1,3.4-9.1,3.4s-9.1-1.5-9.1-3.4
	S1331.5,1167.1,1336.5,1167.1z M1336.3,1374.2l86.2-49.8v19.1l-86.2,49.8l-86.2-49.8v-19.1L1336.3,1374.2z M507.7,987.7l746.1,430.8
	l-72.5,41.9L238.9,916.2l72.5-41.9L483.9,974c-2.7,12.8-5.9,27.5-6.9,31.8c-0.9,0.6-2.1,1.5-3.1,2.6l0,0c-1.8,1.7-21.3-5.6-21.3-5.6
	s-2.8,2-4.7,6.6s7.8,12.7,13.5,13.5c5.8,0.8,11.3,7.1,18.2,8.5c6.9,1.4,10.4-3.8,10.3-5.6c-0.1-1.8-2.4-9.3-2.4-9.3
	s-0.3-0.3-0.9-0.7c0.3-0.7,0.5-1.4,0.6-1.9c0.6,0,1.2,0,1.7,0c3.8,0,17.7-21.8,18.6-25.6C507.6,988.1,507.7,987.9,507.7,987.7z"></path>
<path id="color_x5F_6" fill="#c4c8cb" d="M490.7,962.3c-0.1-0.1-0.3-0.3-0.4-0.4C490.5,962,490.6,962.1,490.7,962.3z M496,964.6
	c3.3,0.5,7.2,0,10.5-0.7C503.2,964.6,499.3,965.1,496,964.6z M489.4,960.3c0.1,0.2,0.2,0.4,0.3,0.5
	C489.6,960.7,489.5,960.5,489.4,960.3z M491.4,962.9c-0.2-0.1-0.3-0.3-0.5-0.4C491.1,962.6,491.3,962.7,491.4,962.9z M516.3,791.9
	c0,0,10.2-4.6,18.1-7.2C527.9,784.3,516.3,791.9,516.3,791.9z M489,959.2c0.1,0.3,0.2,0.6,0.3,0.9
	C489.2,959.8,489.1,959.5,489,959.2z M488,953.5c0-0.1,0.1-0.2,0.1-0.3c-0.8-11.8,2.2-29.2,4.8-33.2c1.3-2,5-8.1,8.9-14.5
	c-3.4,3-6.5,5.3-7,5.3c-1.3,0-5.7-8.9-5.7-8.9l-2.8,1.3l-1.3-3c0,0,1.7-2.7,2-4.1c0.3-1.4,14.7-10,14.7-10l4.2-28.5
	c0,0-5.2-4.8-8.2-15.5c-6.4-22.7-0.6-28.7-0.6-28.7l0,0c4.6-7.6,19.1-21.5,19.1-21.5s-0.6-4.1-0.6-5.5c-3.8,1.3-8.4,2.2-11.7,1
	c-6.8-2.4-6.5-11-6.5-11v-12.7c0,0-1.8-0.8-2.8-4.7c-0.7-2.5,0.5-9.1,1.4-13.2c-0.1-2-0.2-4.1,0-5.9l-43.2,24.9L366.6,715v-19.1
	l36.3-20.9l32.6-123.1L93.8,748.6l390.1,225.3C486.1,963.6,488,954.5,488,953.5z M493.1,963.8c-0.6-0.2-1.1-0.5-1.5-0.9
	C492,963.3,492.6,963.6,493.1,963.8z M497.1,752.9C497.1,752.9,497.1,753,497.1,752.9C497.1,753,497.1,752.9,497.1,752.9z
	 M496.9,752.2L496.9,752.2L496.9,752.2z M489.8,961.2c0.1,0.2,0.2,0.3,0.3,0.5C490,961.5,489.9,961.3,489.8,961.2z M488.7,957.8v0.1
	C488.7,957.8,488.7,957.8,488.7,957.8z M746.3,1125.4l144.6,83.5v0.1L507.7,987.7c0.9-3.9,3.3-18.1,4.6-25.3
	c0.8-0.2,1.2-0.4,1.2-0.4s10.7-19.6,21.1-32.6c2.1,9.6,4.7,21.5,6.5,29.2c3.4,14.7,11.6,16.9,11.6,16.9l65.5,48.2
	c0.6-0.3,1.2-0.6,1.8-1c3.5,2.6,8.2,4,8.2,4c1.7,1.7,1.9,9.4,11.1,27.1c0.4,0.8,0.8,1.5,1.3,2.2l0,0l0,0c5.1,8.5,9.5,8.2,12.8,5.1
	l0,0c0.2-0.2,0.3-0.3,0.5-0.5l0,0c0.1-0.2,0.3-0.3,0.4-0.5c0,0,0-0.1,0.1-0.1c0.1-0.2,0.3-0.3,0.4-0.5l0.1-0.1
	c0.1-0.2,0.2-0.3,0.4-0.5l0.1-0.1c0.1-0.2,0.2-0.3,0.3-0.5c0-0.1,0.1-0.1,0.1-0.2c0.1-0.2,0.2-0.3,0.3-0.5c0-0.1,0.1-0.1,0.1-0.2
	c0.1-0.2,0.2-0.3,0.3-0.5c0-0.1,0.1-0.2,0.1-0.2c0.1-0.2,0.2-0.3,0.2-0.5c0-0.1,0.1-0.2,0.1-0.3c0.1-0.2,0.1-0.3,0.2-0.5
	c0-0.1,0.1-0.2,0.1-0.3c0.1-0.1,0.1-0.3,0.2-0.4c0-0.1,0.1-0.2,0.1-0.3c0.1-0.1,0.1-0.3,0.2-0.4c0.1-0.1,0.1-0.3,0.2-0.4
	c0-0.1,0.1-0.2,0.1-0.3c0.1-0.2,0.1-0.4,0.2-0.6v-0.1c1.1-3.1,0.6-6.6-0.4-9.7c-0.1-0.4-0.3-0.8-0.4-1.2c0-0.1-0.1-0.3-0.1-0.4
	c-0.3-0.8-0.7-1.6-1-2.3c0-0.1-0.1-0.1-0.1-0.2c-1.1-2.3-2.3-4.1-2.7-4.8c-0.1-0.2-0.3-0.6-0.5-1c-1.5-3.4-4.9-12.8-5.7-18l0,0
	c-0.1-0.3-0.1-0.7-0.2-1c0-0.1-0.1-0.3-0.1-0.4c0-0.2-0.1-0.3-0.1-0.5c-0.1-0.2-0.1-0.3-0.2-0.5c0-0.1-0.1-0.2-0.1-0.3
	c-0.1-0.2-0.2-0.4-0.3-0.6c0,0,0-0.1-0.1-0.1c-0.1-0.2-0.2-0.4-0.4-0.6l0,0c-1.7-2.4-4.8-2.7-9.5-0.9c-1.2,0.4-2.2,0.8-3.1,1.1
	c-0.1-0.6-0.3-1-0.7-1.4c-1.6-1.5-3.6-2.8-5.3-3.7c-0.2-0.1-0.4-0.2-0.6-0.3c-0.1-1.2-0.2-2-0.2-2c-38.4-53-59.8-46-59.8-46
	c6.8-55.3,0-71.9,0-71.9s-8.3-25.8-6.8-45.8c9.6,2.6,23.2,2.9,23.2,2.9c6.6,0.6,6.6-3,8.1-6.6s-32.2-53.2-32.2-53.2l0,0
	c-0.2-0.3-0.5-0.7-0.7-1c0,0-11.8-0.7-19.6,1c-1.3,0.3-2.8,0.7-4.5,1.3c0,0-1.2-2.4-2.8-4.2c7.1-3.5,13.2-9.5,13.6-14.5
	c0.6-7.3-1.7-29.9-19-36.5c-3.1-1.2-6.1-1.8-8.8-1.9l21.8-12.6v-19.1l-36-20.8l-4.9-18.4l0,0l-6.1-22.9l-25.3-95.1
	c-0.5-1.4-1.4-2.6-2.5-3.5l65.1-37.5l101.1,58.4l-27.6,104.2L566.4,681v19.1l86.2,49.8l86.2-49.8V681l-36-20.8l-4.9-18.4l0,0
	l-7.8-29.4l-7-26.2l753.1,434.8v0.2L963.7,749.1l-72.5,41.4l72.5,41.9l72.5,41.9l-72.5,41.9l-145-83.7l-72.5,41.9l72.5,41.9
	l-72.5,41.9l-72.5-41.9l-72.4,41.8l144.9,83.8v1.4l72.5,40.5L746.3,1125.4z M605.4,907.3l16.7,9.8l88.3-51v42l15.6,9l15.6-9v-60
	l73.7-42.6v-89.3l-16.7-9.8L605.4,818V907.3z M1906.2,1292.8L1471.1,1544L1058,1305.5l50.7,29.2l72.5-41.9l-72.5-41.9l72.5-41.9
	l-107.9-62.1l87.5-50.5l-15.6,9v41.9l15.6,9l15.6-9v-60l41.9-24.2l35.4,20.3l72.5-41.9l72.5,41.9l25.2-14.6l-17.6,66.5l-36.3,20.9
	v19.1l86.2,49.8l86.2-49.8v-19.1l-36-20.8l-4.9-18.4l0,0l-6.5-24.3l-11.8-44.3L1906.2,1292.8z M1422.5,1324.4l-36-20.8l-4.9-18.4
	l0,0l-7.8-29.4l-23.6-88.6c-0.6-1.7-1.7-3.1-3.1-4c-8.4-5.4-16.9-2.3-21.1,0c-1.7,0.9-3,2.5-3.7,4.5l-36,135.6l-36.3,20.9v19.1
	l86.2,49.8l86.2-49.8v-18.9H1422.5z M494,964.1c-0.3-0.1-0.5-0.2-0.8-0.3C493.4,964,493.7,964.1,494,964.1z M506.6,963.9
	c0.3-0.1,0.6-0.1,0.8-0.2C507.1,963.8,506.8,963.9,506.6,963.9z M963.8,999.8l-72.9,42.1l149.4,86v-70.5l11.3-6.5l-15.3-8.9
	L963.8,999.8z M494.9,964.4c-0.3-0.1-0.5-0.1-0.8-0.2C494.4,964.3,494.6,964.3,494.9,964.4z M495,964.4c0.3,0.1,0.6,0.1,0.9,0.2
	C495.6,964.5,495.3,964.5,495,964.4z M509.4,963.3c0.1,0,0.2,0,0.2-0.1C509.5,963.2,509.5,963.2,509.4,963.3z M507.6,963.7
	c0.2-0.1,0.5-0.1,0.7-0.2C508,963.6,507.8,963.7,507.6,963.7z M508.5,963.5c0.2,0,0.3-0.1,0.5-0.1
	C508.9,963.4,508.7,963.4,508.5,963.5z"></path>
<path id="color_x5F_5" fill="#FFD2BB" d="M1251.6,526.8c0.4-0.8,0.6-2.7,0.7-5.1c2.6,0.1,5.6,0,9.1-0.2c0,0-8.3-22.3-3.9-32.3
	c0,0,12.7,4.2,19.9-8.5c0,0,0.7,8.3,5.3,12.2c0.3,3.3,0.4,6.6,0.3,9.8c-0.5,7-2.3,15.4-8,15.7c0,0,0.7,0.4,2.1,0.7
	c-1.6,1.2-3.7,1.8-6.2,1.6c-2.4-0.1-4.7-0.9-6.9-2.1c0.4,1.5,0.7,3,0.9,4.3c0,0.1,0,0.1,0,0.2c0.7-0.1,1.6-0.1,2.5-0.2
	c0,1.3-0.1,3.9-0.1,4.9c0,0.8,0,3-1,4.6c-0.7,1.3-2,2.3-4.3,2.2C1257.2,534.3,1252.4,528,1251.6,526.8z M1331.2,624.9
	c-2.9-1.1-12.4-10.2-12.4-10.2c7.7,1.1,8.3-3.7,6.7-3.2c-1.6,0.5-11.7-1.6-11.7-1.6s-11.2-14.2-12.5-18.7
	c-0.9-3.2-10-14.1-15.3-20.4c-2,2.2-2.7,5-2.7,7.7l0,0c-0.1,4.2,1.4,8.2,1.8,9.2l0,0c0,0.1,0,0.1,0.1,0.1l0,0v0.1l0.9,3.6l0.8,2.9
	c8.1,7.9,19.6,19.4,19.6,21c0.1,2.4,9.4,11.7,9.4,11.7s5.3,7,6.7,6.5s-1.1-4.1-1.1-4.1s2.6,2.4,4.2,2.7s-2.3-4.7-2.3-4.7
	s4.5,2.3,6,2.3s-1.9-3.7-1.9-3.7C1331.9,627.2,1334.1,626,1331.2,624.9z M1220.3,661.4c0,0,0.9,0.2,0.6-2.4c0,0,2.5,6.4,2.9,1.5
	c0,0,3.7,4.5,3.1,0c0,0,4.1,5.2,5,2.2s-3.8-5.9-4.2-11.8c0,0,6.5,2.6,6.9-1.5c0,0-7.5-4.6-8.1-6.1s-2.5-1-3-7.8s2.8-14.4,2-33.8
	c0,0-1-9.5-0.7-12.1c0.1-1.4,3.2-7.2,6.6-12.4c-1.8-0.8-5.3-2.5-8.7-4.5c-0.3-0.2-0.6-0.4-0.8-0.5c-0.5-0.3-0.9-0.6-1.4-0.9
	c-3.6,9.7-6.9,18.1-8.1,19.5c-2.9,3.2,4,45.1,4,45.1S1215.6,657.7,1220.3,661.4z M591.3,836.7c-1.5,3.6-1.5,7.1-8.1,6.6
	c0,0-13.6-0.3-23.2-2.9c0.1-1.3,0.2-2.6,0.4-3.9c2.9-19.5,3.7-45.1-1.4-53l0,0C559.1,783.4,592.8,833.1,591.3,836.7z M522.7,852.5
	c0,0-6.9-40-21.2-45.1l-4.4,5.9c0,0-5.8,6,0.6,28.7c3,10.7,8.2,15.5,8.2,15.5l-4.2,28.5c0,0-14.4,8.6-14.7,10c-0.3,1.4-2,4.1-2,4.1
	l1.3,3l2.8-1.3c0,0,4.4,8.9,5.7,8.9c1.3,0,16.9-13.1,16.9-17.3C516.7,886.2,522.7,852.5,522.7,852.5z M521.3,783.4
	c-0.8,0-1.6,0-2.3-0.1l0,0l0,0c-6.4-0.9-7.1-6.6-7.1-8.7l0,0c0-0.2,0-0.3,0-0.4l0,0c0-0.1,0-0.2,0-0.3l0,0c0-0.1,0-0.1,0-0.1
	s1.1-10.7-3.4-10.3s-5.6,4.2-4.7,9.5c0,0-3.5,2.5-2.4-14.5c0,0-2.7-1.7-4.1-4.9c-0.1-0.2-0.1-0.3-0.2-0.5V753
	c-0.1-0.2-0.1-0.4-0.2-0.7v-0.1c-0.4-1.6-0.7-3.9-0.9-6.3c-0.8,4.1-2,10.6-1.4,13.2c1,3.8,2.8,4.7,2.8,4.7v12.7c0,0-0.3,8.6,6.5,11
	c3.3,1.2,7.9,0.2,11.7-1c0,1.4,0.6,5.5,0.6,5.5s11.6-7.6,18.1-7.2c0,0-1.2-2.4-2.8-4.2C528.2,782.2,524.6,783.3,521.3,783.4z"></path>
<path id="color_x5F_4" fill="#1e2022" d="M1616.4,1042v83.7l-133-76.8l-13.2-49.6c-0.6-1.7-1.7-3.1-3.1-4c-8.4-5.4-16.9-2.3-21.1,0
	c-1.7,0.9-3,2.5-3.7,4.5l-5.8,22l-753-434.7l-9.5-35.8v-53.5L1616.4,1042z M1447.4,1002.6c0,1.9,4.1,3.4,9.1,3.4s9.1-1.5,9.1-3.4
	s-4.1-3.4-9.1-3.4S1447.4,1000.7,1447.4,1002.6z M1542.5,1156.4l-86.2,49.8l-86.2-49.8l36.3-20.9l-4.3,16.4c-1.4,4,0.1,8.6,3.4,10.5
	c56.7,34.1,91.7,8.8,103.1-2.2c2.5-2.4,3.3-6.4,2-9.8l-3.9-14.7L1542.5,1156.4z M1336.5,1167.1c5,0,9.1,1.5,9.1,3.4
	s-4.1,3.4-9.1,3.4s-9.1-1.5-9.1-3.4S1331.5,1167.1,1336.5,1167.1z M1422.5,1324.4l-86.2,49.8l-86.2-49.8l36.3-20.9l-4.3,16.4
	c-1.4,4,0.1,8.6,3.4,10.5c56.7,34.1,91.7,8.8,103.1-2.2c2.5-2.4,3.3-6.4,2-9.8l-3.9-14.7L1422.5,1324.4z M653,524.1
	c5,0,9.1,1.5,9.1,3.4s-4.1,3.4-9.1,3.4s-9.1-1.5-9.1-3.4C643.9,525.7,648,524.1,653,524.1z M739,681.4l-86.2,49.8l-86.2-49.8
	l36.3-20.9l-4.3,16.4c-1.4,4,0.1,8.6,3.4,10.5c56.7,34.1,91.7,8.8,103.1-2.2c2.5-2.4,3.3-6.4,2-9.8l-3.9-14.7L739,681.4z M453,538.6
	c5,0,9.1,1.5,9.1,3.4s-4.1,3.4-9.1,3.4s-9.1-1.5-9.1-3.4C444,540.2,448,538.6,453,538.6z M539,695.9l-86.2,49.8l-86.2-49.8
	l36.3-20.9l-4.3,16.4c-1.4,4,0.1,8.6,3.4,10.5c56.7,34.1,91.7,8.8,103.1-2.2c2.5-2.4,3.3-6.4,2-9.8l-3.9-14.7L539,695.9z"></path>
<path id="color_x5F_3" fill="#f0f5f9" d="M693.9,804.3v8.7c0,0.9-0.1,1.7-0.3,2.6c-0.2,0.9-0.6,1.8-1.1,2.6c-0.5,0.9-1,1.6-1.6,2.1
	c-0.8,0.8-1.7,1.5-2.7,2.1c-0.6,0.4-1.3,0.7-2,1s-1.3,0.5-1.8,0.5s-0.9-0.2-1.4-0.5c-0.4-0.3-0.7-0.7-0.8-1.2
	c-0.2-0.8-0.4-1.5-0.4-2.2v-8.7l3.9-2.3v8.9c0,0.8,0.2,1.3,0.6,1.5c0.4,0.2,0.9,0.1,1.6-0.2c0.7-0.4,1.2-0.9,1.6-1.6
	c0.4-0.7,0.6-1.4,0.6-2.2v-8.9L693.9,804.3z M718.6,823.9c-0.3-0.2-0.5-0.4-0.6-0.4c-0.2-0.1-0.6,0-1,0.1c0.6-0.5,1-0.9,1.4-1.4
	c0.5-0.7,0.9-1.4,1.2-2.1c0.3-0.8,0.4-1.5,0.4-2.3c0-0.9-0.2-1.6-0.6-2c-0.4-0.4-0.9-0.6-1.5-0.4c-0.6,0.1-1.6,0.6-2.8,1.3l-6.5,3.8
	v14.6l3.9-2.3v-5.9l0.3-0.2c0.4-0.2,0.7-0.3,1-0.2c0.2,0,0.4,0.3,0.7,0.7l2.1,3.2l4.4-2.6l-1.9-3.1
	C719.1,824.3,718.9,824.1,718.6,823.9z M715.9,821.3c-0.2,0.3-0.4,0.6-0.6,0.8c-0.5,0.4-0.9,0.7-1,0.8l-1.7,1v-3l1.7-1
	c0.7-0.4,1.2-0.6,1.5-0.5s0.4,0.4,0.4,0.9C716.1,820.7,716,821,715.9,821.3 M705,797.9v8l-4.8-5.3l-3.7,2.1v14.6l3.7-2.1v-8l4.8,5.3
	l3.7-2.1v-14.6L705,797.9z M730.2,807.8v8.9c0,0.8-0.2,1.5-0.6,2.2c-0.4,0.7-0.9,1.2-1.6,1.6c-0.7,0.4-1.2,0.5-1.6,0.3
	c-0.4-0.2-0.6-0.7-0.6-1.5v-8.9l-3.9,2.3v8.7c0,0.7,0.1,1.5,0.4,2.2c0.1,0.5,0.4,0.9,0.8,1.2c0.4,0.3,0.9,0.5,1.3,0.5
	c0.5,0,1.1-0.1,1.8-0.5c0.7-0.3,1.4-0.7,2-1c1.1-0.6,2-1.3,2.7-2.1c0.5-0.5,1.1-1.3,1.6-2.1c0.5-0.9,0.9-1.7,1.1-2.6
	c0.2-0.9,0.3-1.8,0.3-2.6v-8.7L730.2,807.8z M721.7,790.4c-0.5-0.4-1-0.6-1.8-0.5c-0.7,0-1.6,0.4-2.8,1.1l-5.8,3.4V809l5.8-3.4
	c0.7-0.4,1.5-1,2.3-1.7c0.6-0.6,1.2-1.3,1.8-2.2c0.5-0.9,1-1.9,1.3-2.9s0.5-2.3,0.5-3.9c0-1-0.1-1.9-0.3-2.6
	C722.5,791.3,722.1,790.8,721.7,790.4z M718.8,799.8c-0.2,0.6-0.5,1.1-0.8,1.6c-0.3,0.4-0.9,0.9-1.7,1.3l-1,0.6v-8l1-0.6
	c1-0.6,1.7-0.7,2.2-0.4c0.4,0.3,0.7,1.3,0.7,2.8C719.1,798.3,719,799.2,718.8,799.8 M725,786.3v14.6l10.7-6.2v-3.3l-6.8,3.9v-2.9
	l6.1-3.5v-3l-6.1,3.5v-2.3l6.6-3.8v-3.1L725,786.3z M749.6,796.6v3.6l4-2.3v11l3.9-2.3v-11l4-2.3v-3.6L749.6,796.6z M747.9,782.6
	c-0.3-0.2-0.5-0.4-0.6-0.4c-0.2-0.1-0.6,0-1,0.1c0.6-0.5,1-0.9,1.4-1.4c0.5-0.7,0.9-1.4,1.2-2.1c0.3-0.8,0.4-1.5,0.4-2.4
	s-0.2-1.6-0.6-2c-0.4-0.4-0.9-0.6-1.6-0.4c-0.6,0.1-1.6,0.6-2.8,1.2l-6.5,3.8v14.6l3.9-2.3v-5.9l0.3-0.2c0.4-0.2,0.7-0.3,1-0.2
	c0.2,0.1,0.4,0.3,0.7,0.7l2.1,3.2l4.4-2.6l-1.9-3.1C748.4,783,748.2,782.8,747.9,782.6z M745.1,780c-0.2,0.3-0.4,0.6-0.6,0.8
	c-0.5,0.4-0.9,0.7-1,0.8l-1.6,1v-3l1.7-1c0.7-0.4,1.2-0.6,1.5-0.5s0.4,0.4,0.4,0.9C745.4,779.3,745.3,779.6,745.1,780 M640.9,861
	c-1.1,1.9-1.7,4.1-1.7,6.5c0,1.8,0.3,3.1,1,3.9c0.6,0.8,1.4,1.2,2.3,1.1c0.9-0.1,2-0.5,3.4-1.3c1.1-0.7,2.1-1.4,2.8-2.2
	s1.3-1.7,1.8-2.7s0.9-2.2,1.1-3.4l-3.4,0.8c-0.2,1-0.4,1.9-0.8,2.6s-0.9,1.3-1.7,1.7s-1.4,0.5-1.8,0.1c-0.4-0.3-0.6-1.3-0.6-2.9
	c0-1.3,0.2-2.4,0.5-3.2c0.5-1.1,1.1-1.9,2-2.4c0.4-0.2,0.7-0.3,1.1-0.3c0.3,0,0.6,0.1,0.8,0.3c0.1,0.1,0.3,0.4,0.4,0.7l3.5-2.9
	c-0.4-1.3-1.1-2-2-2.2s-2.2,0.1-3.8,1.1C643.6,857.5,642.1,859.1,640.9,861z M659.5,848.3c-2.1,1.2-3.7,2.8-4.8,4.8
	s-1.7,4.2-1.7,6.5c0,1.7,0.3,3,0.9,3.7c0.6,0.8,1.3,1.2,2.3,1.2c0.9,0,2.1-0.4,3.6-1.3c1.4-0.8,2.6-1.8,3.5-2.9
	c0.9-1.2,1.7-2.4,2.2-3.8c0.5-1.4,0.7-2.9,0.7-4.6c0-2.3-0.6-3.8-1.7-4.5C663.3,846.8,661.7,847.1,659.5,848.3z M661.6,857.9
	c-0.5,0.9-1.1,1.6-2,2.1c-0.8,0.5-1.5,0.5-1.9,0.2c-0.5-0.4-0.7-1.3-0.7-2.8s0.2-2.7,0.7-3.6c0.5-0.9,1.1-1.6,1.9-2.1
	c0.8-0.5,1.5-0.5,2-0.2c0.5,0.4,0.7,1.2,0.7,2.6C662.2,855.8,662,857,661.6,857.9 M676.7,838.7v8l-4.8-5.3l-3.7,2.1v14.6l3.7-2.1v-8
	l4.8,5.3l3.7-2.1v-14.6L676.7,838.7z M685,834.2c-0.8,0.8-1.3,1.7-1.7,2.6c-0.4,0.9-0.6,1.7-0.6,2.4c0,1.1,0.4,1.9,1.1,2.2
	c0.7,0.3,2,0.2,3.7-0.4c1-0.3,1.7-0.4,2-0.3c0.3,0.1,0.4,0.4,0.4,0.8c0,0.4-0.1,0.8-0.5,1.3c-0.3,0.5-0.7,0.9-1.3,1.2
	c-0.7,0.4-1.3,0.5-1.7,0.1c-0.2-0.2-0.4-0.7-0.5-1.3l-3.7,2.4c0.1,1.4,0.6,2.3,1.4,2.8c0.8,0.5,2.3,0.1,4.5-1.2
	c1.2-0.7,2.2-1.5,3.1-2.4c0.8-0.9,1.4-1.8,1.9-2.9c0.5-1,0.7-2,0.7-3c0-0.8-0.2-1.4-0.5-1.9s-0.9-0.7-1.6-0.7c-0.7,0-2,0.3-3.7,0.8
	c-0.7,0.2-1.1,0.3-1.3,0.2s-0.3-0.2-0.3-0.5s0.1-0.7,0.3-1c0.2-0.4,0.6-0.7,1-0.9c0.5-0.3,1-0.4,1.3-0.3c0.3,0.1,0.5,0.5,0.6,1.1
	l3.7-2.4c-0.2-1.4-0.7-2.2-1.5-2.4c-0.9-0.2-2.1,0.2-3.7,1.1C686.8,832.6,685.8,833.4,685,834.2z M694.9,828.2v3.6l4-2.3v11l3.9-2.3
	v-11l4-2.3v-3.6L694.9,828.2z M738,805c-1.1,1.9-1.7,4.1-1.7,6.5c0,1.8,0.3,3.1,1,3.9s1.4,1.2,2.3,1.1c0.9,0,2-0.5,3.4-1.3
	c1.1-0.7,2.1-1.4,2.8-2.2s1.4-1.7,1.8-2.7c0.5-1,0.9-2.2,1.1-3.4l-3.4,0.8c-0.2,1-0.4,1.9-0.8,2.6c-0.4,0.7-0.9,1.3-1.7,1.7
	s-1.4,0.5-1.8,0.1c-0.4-0.3-0.6-1.3-0.7-2.9c0-1.3,0.2-2.4,0.5-3.2c0.5-1.1,1.2-1.9,2-2.4c0.4-0.2,0.7-0.3,1.1-0.3
	c0.3,0,0.6,0.1,0.8,0.3c0.1,0.1,0.3,0.4,0.4,0.7l3.5-2.9c-0.4-1.3-1.1-2-2-2.2s-2.2,0.1-3.8,1.1C740.6,801.5,739.1,803.1,738,805z
	 M763.4,788.6v14.6l3.9-2.3v-14.6L763.4,788.6z M776.2,781c-2.1,1.2-3.7,2.8-4.8,4.8c-1.2,2-1.7,4.2-1.7,6.5c0,1.7,0.3,3,0.9,3.7
	c0.6,0.8,1.3,1.2,2.3,1.2c0.9,0,2.1-0.4,3.6-1.3c1.4-0.8,2.6-1.8,3.5-2.9c0.9-1.2,1.7-2.4,2.2-3.8c0.5-1.4,0.7-2.9,0.7-4.6
	c0-2.3-0.6-3.8-1.7-4.5C780,779.5,778.3,779.8,776.2,781z M778.2,790.6c-0.5,0.9-1.1,1.6-1.9,2.1c-0.8,0.5-1.5,0.5-1.9,0.2
	c-0.5-0.4-0.7-1.3-0.7-2.8s0.2-2.7,0.7-3.6c0.5-0.9,1.1-1.6,1.9-2.1c0.8-0.5,1.5-0.5,2-0.2c0.5,0.4,0.7,1.2,0.7,2.6
	C778.9,788.4,778.7,789.7,778.2,790.6 M793.4,771.3v8l-4.8-5.3l-3.7,2.1v14.6l3.7-2.1v-8l4.8,5.3l3.7-2.1v-14.6L793.4,771.3z
	 M1131.2,1046.6v8.9c0,0.8-0.2,1.5-0.6,2.2s-0.9,1.2-1.6,1.6s-1.2,0.5-1.6,0.2c-0.4-0.2-0.6-0.7-0.6-1.5v-8.9l-3.9,2.3v8.7
	c0,0.7,0.1,1.5,0.4,2.2c0.1,0.5,0.4,0.9,0.8,1.2c0.4,0.3,0.9,0.5,1.4,0.5s1.1-0.1,1.8-0.5c0.7-0.3,1.4-0.7,2-1
	c1.1-0.6,2-1.3,2.7-2.1c0.5-0.5,1.1-1.3,1.6-2.1c0.5-0.9,0.9-1.7,1.1-2.6s0.3-1.8,0.3-2.6v-8.7L1131.2,1046.6z M1159.8,1064
	c-0.3-0.2-0.5-0.4-0.6-0.4c-0.2-0.1-0.6,0-1,0.1c0.6-0.5,1-0.9,1.4-1.4c0.5-0.7,0.9-1.4,1.2-2.1c0.3-0.8,0.4-1.5,0.4-2.3
	c0-0.9-0.2-1.6-0.6-2s-0.9-0.6-1.5-0.4c-0.6,0.1-1.6,0.6-2.8,1.3l-6.5,3.8v14.6l3.9-2.3v-5.9l0.3-0.2c0.4-0.2,0.7-0.3,1-0.2
	c0.2,0,0.4,0.3,0.7,0.7l2.1,3.2l4.4-2.6l-1.9-3.1C1160.3,1064.4,1160.1,1064.2,1159.8,1064z M1157,1061.4c-0.2,0.3-0.4,0.6-0.6,0.8
	c-0.5,0.4-0.9,0.7-1,0.8l-1.7,1v-3l1.7-1c0.7-0.4,1.2-0.6,1.5-0.5s0.4,0.4,0.4,0.9C1157.3,1060.7,1157.2,1061.1,1157,1061.4
	 M1146.1,1038v8l-4.8-5.3l-3.7,2.1v14.6l3.7-2.1v-8l4.8,5.3l3.7-2.1v-14.6L1146.1,1038z M1171.4,1047.9v8.9c0,0.8-0.2,1.5-0.6,2.2
	s-0.9,1.2-1.6,1.6s-1.2,0.5-1.6,0.3s-0.6-0.7-0.6-1.5v-8.9l-3.9,2.3v8.7c0,0.7,0.1,1.5,0.4,2.2c0.1,0.5,0.4,0.9,0.8,1.2
	c0.4,0.3,0.9,0.5,1.3,0.5s1.1-0.1,1.8-0.5c0.7-0.3,1.4-0.7,2-1c1.1-0.6,2-1.3,2.7-2.1c0.5-0.5,1.1-1.3,1.6-2.1
	c0.5-0.9,0.9-1.7,1.1-2.6s0.3-1.8,0.3-2.6v-8.7L1171.4,1047.9z M1162.8,1030.4c-0.5-0.4-1-0.6-1.8-0.5c-0.7,0-1.6,0.4-2.8,1.1
	l-5.8,3.4v14.6l5.8-3.4c0.7-0.4,1.5-1,2.3-1.7c0.6-0.6,1.2-1.3,1.8-2.2c0.5-0.9,1-1.9,1.3-2.9s0.5-2.3,0.5-3.9c0-1-0.1-1.9-0.3-2.6
	C1163.6,1031.4,1163.3,1030.9,1162.8,1030.4z M1159.9,1039.9c-0.2,0.6-0.5,1.1-0.8,1.6c-0.3,0.4-0.9,0.9-1.7,1.3l-1,0.6v-8l1-0.6
	c1-0.6,1.7-0.7,2.2-0.4c0.4,0.3,0.7,1.3,0.7,2.8C1160.2,1038.4,1160.1,1039.3,1159.9,1039.9 M1166.2,1026.4v14.6l10.7-6.2v-3.3
	l-6.8,3.9v-2.9l6.1-3.5v-3l-6.1,3.5v-2.3l6.6-3.8v-3.1L1166.2,1026.4z M1190.8,1036.7v3.6l4-2.3v11l3.9-2.3v-11l4-2.3v-3.6
	L1190.8,1036.7z M1189.1,1022.7c-0.3-0.2-0.5-0.4-0.6-0.4c-0.2-0.1-0.6,0-1,0.1c0.6-0.5,1-0.9,1.4-1.4c0.5-0.7,0.9-1.4,1.2-2.1
	c0.3-0.8,0.4-1.5,0.4-2.4s-0.2-1.6-0.6-2s-0.9-0.6-1.6-0.4c-0.6,0.1-1.6,0.6-2.8,1.2l-6.5,3.8v14.6l3.9-2.3v-5.9l0.3-0.2
	c0.4-0.2,0.7-0.3,1-0.2c0.2,0.1,0.4,0.3,0.7,0.7l2.1,3.2l4.4-2.6l-1.9-3.1C1189.5,1023.1,1189.4,1022.9,1189.1,1022.7z
	 M1186.3,1020.1c-0.2,0.3-0.4,0.6-0.6,0.8c-0.5,0.4-0.9,0.7-1,0.8l-1.6,1v-3l1.7-1c0.7-0.4,1.2-0.6,1.5-0.5s0.4,0.4,0.4,0.9
	C1186.6,1019.4,1186.5,1019.7,1186.3,1020.1 M1082.1,1101.1c-1.1,1.9-1.7,4.1-1.7,6.5c0,1.8,0.3,3.1,1,3.9c0.6,0.8,1.4,1.2,2.3,1.1
	s2-0.5,3.4-1.3c1.1-0.7,2.1-1.4,2.8-2.2c0.7-0.8,1.3-1.7,1.8-2.7s0.9-2.2,1.1-3.4l-3.4,0.8c-0.2,1-0.4,1.9-0.8,2.6s-0.9,1.3-1.7,1.7
	c-0.8,0.4-1.4,0.5-1.8,0.1c-0.4-0.3-0.6-1.3-0.6-2.9c0-1.3,0.2-2.4,0.5-3.2c0.5-1.1,1.1-1.9,2-2.4c0.4-0.2,0.7-0.3,1.1-0.3
	c0.3,0,0.6,0.1,0.8,0.3c0.1,0.1,0.3,0.4,0.4,0.7l3.5-2.9c-0.4-1.3-1.1-2-2-2.2s-2.2,0.1-3.8,1.1
	C1084.8,1097.6,1083.2,1099.2,1082.1,1101.1z M1100.7,1088.4c-2.1,1.2-3.7,2.8-4.8,4.8c-1.1,2-1.7,4.2-1.7,6.5c0,1.7,0.3,3,0.9,3.7
	c0.6,0.8,1.3,1.2,2.3,1.2c0.9,0,2.1-0.4,3.6-1.3c1.4-0.8,2.6-1.8,3.5-2.9c0.9-1.2,1.7-2.4,2.2-3.8s0.7-2.9,0.7-4.6
	c0-2.3-0.6-3.8-1.7-4.5C1104.5,1086.9,1102.8,1087.2,1100.7,1088.4z M1102.7,1098c-0.5,0.9-1.1,1.6-2,2.1c-0.8,0.5-1.5,0.5-1.9,0.2
	c-0.5-0.4-0.7-1.3-0.7-2.8s0.2-2.7,0.7-3.6s1.1-1.6,1.9-2.1s1.5-0.5,2-0.2c0.5,0.4,0.7,1.2,0.7,2.6
	C1103.4,1095.9,1103.2,1097.1,1102.7,1098 M1117.9,1078.8v8l-4.8-5.3l-3.7,2.1v14.6l3.7-2.1v-8l4.8,5.3l3.7-2.1v-14.6L1117.9,1078.8
	z M1126.2,1074.3c-0.8,0.8-1.3,1.7-1.7,2.6c-0.4,0.9-0.6,1.7-0.6,2.4c0,1.1,0.4,1.9,1.1,2.2c0.7,0.3,2,0.2,3.7-0.4
	c1-0.3,1.7-0.4,2-0.3s0.4,0.4,0.4,0.8s-0.1,0.8-0.5,1.3c-0.3,0.5-0.7,0.9-1.3,1.2c-0.7,0.4-1.3,0.5-1.7,0.1
	c-0.2-0.2-0.4-0.7-0.5-1.3l-3.7,2.4c0.1,1.4,0.6,2.3,1.4,2.8s2.3,0.1,4.5-1.2c1.2-0.7,2.2-1.5,3.1-2.4c0.8-0.9,1.4-1.8,1.9-2.9
	c0.5-1,0.7-2,0.7-3c0-0.8-0.2-1.4-0.5-1.9s-0.9-0.7-1.6-0.7s-2,0.3-3.7,0.8c-0.7,0.2-1.1,0.3-1.3,0.2c-0.2-0.1-0.3-0.2-0.3-0.5
	s0.1-0.7,0.3-1c0.2-0.4,0.6-0.7,1-0.9c0.5-0.3,1-0.4,1.3-0.3s0.5,0.5,0.6,1.1l3.7-2.4c-0.2-1.4-0.7-2.2-1.5-2.4
	c-0.9-0.2-2.1,0.2-3.7,1.1C1128,1072.7,1127,1073.5,1126.2,1074.3z M1136,1068.3v3.6l4-2.3v11l3.9-2.3v-11l4-2.3v-3.6L1136,1068.3z
	 M1179.1,1045.1c-1.1,1.9-1.7,4.1-1.7,6.5c0,1.8,0.3,3.1,1,3.9c0.6,0.8,1.4,1.2,2.3,1.1c0.9,0,2-0.5,3.4-1.3
	c1.1-0.7,2.1-1.4,2.8-2.2c0.7-0.8,1.4-1.7,1.8-2.7c0.5-1,0.9-2.2,1.1-3.4l-3.4,0.8c-0.2,1-0.4,1.9-0.8,2.6s-0.9,1.3-1.7,1.7
	c-0.8,0.4-1.4,0.5-1.8,0.1c-0.4-0.3-0.6-1.3-0.7-2.9c0-1.3,0.2-2.4,0.5-3.2c0.5-1.1,1.2-1.9,2-2.4c0.4-0.2,0.7-0.3,1.1-0.3
	c0.3,0,0.6,0.1,0.8,0.3c0.1,0.1,0.3,0.4,0.4,0.7l3.5-2.9c-0.4-1.3-1.1-2-2-2.2s-2.2,0.1-3.8,1.1
	C1181.8,1041.6,1180.2,1043.2,1179.1,1045.1z M1204.6,1028.7v14.6l3.9-2.3v-14.6L1204.6,1028.7z M1217.4,1021.1
	c-2.1,1.2-3.7,2.8-4.8,4.8c-1.2,2-1.7,4.2-1.7,6.5c0,1.7,0.3,3,0.9,3.7c0.6,0.8,1.3,1.2,2.3,1.2c0.9,0,2.1-0.4,3.6-1.3
	c1.4-0.8,2.6-1.8,3.5-2.9c0.9-1.2,1.7-2.4,2.2-3.8s0.7-2.9,0.7-4.6c0-2.3-0.6-3.8-1.7-4.5
	C1221.1,1019.6,1219.5,1019.8,1217.4,1021.1z M1219.4,1030.7c-0.5,0.9-1.1,1.6-1.9,2.1s-1.5,0.5-1.9,0.2c-0.5-0.4-0.7-1.3-0.7-2.8
	s0.2-2.7,0.7-3.6s1.1-1.6,1.9-2.1s1.5-0.5,2-0.2c0.5,0.4,0.7,1.2,0.7,2.6C1220.1,1028.5,1219.9,1029.8,1219.4,1030.7 M1234.5,1011.4
	v8l-4.8-5.3l-3.7,2.1v14.6l3.7-2.1v-8l4.8,5.3l3.7-2.1v-14.6L1234.5,1011.4z M1420.7,1081.4l-10.6,40.1c19.1,8.5,53.8,17.5,91.6-4.2
	l-10.4-39.1C1477.5,1083.4,1448.7,1091.6,1420.7,1081.4z M1300.7,1249.3l-10.6,40.1c19.1,8.5,53.8,17.5,91.6-4.2l-10.4-39.1
	C1357.5,1251.4,1328.7,1259.6,1300.7,1249.3z M617.2,606.4l-10.6,40.1c19.1,8.5,53.8,17.5,91.6-4.2l-10.4-39.1
	C674,608.5,645.3,616.6,617.2,606.4z M417.2,620.9L406.6,661c19.1,8.5,53.8,17.5,91.6-4.2l-10.4-39.1
	C474,623,445.3,631.1,417.2,620.9z M1285.8,548.3c-19.4-0.7-47.2,12.4-47.2,12.4l0.9,7.1l-7.1,10.2l0,0l7.1-10.2
	c0,0-0.1,6.8,4.3,20.5c10.2-8.6,30.7-9.7,39.5-9.8c0.1-3.1,0.9-6.4,3.7-8.6c7.2-5.8,4.6-15.3,4.6-15.3
	C1287.9,550.2,1285.8,548.3,1285.8,548.3z M476.8,1007.1c0,0,0.1-0.4,0.3-1.3c-2.2,1.4-5.9,4.5-5.1,8c1.1,5,10.9,5.9,12.8,4.7
	c1.4-0.8,2.2-3.3,2.6-4.8C483.2,1013.8,476.8,1013.1,476.8,1007.1z M629.1,1012.7c0,0,0.5,0,4.3-1.3c-0.1-0.6-0.3-1-0.7-1.4
	c-1.6-1.5-3.6-2.8-5.3-3.7c-1.8-1-4-0.6-5.2,1c-2.7,3.4-6.9,9.3-5.1,12.4c2.5,4.5,11.1,7.1,11.1,7.1
	C626.5,1025.1,629.1,1012.7,629.1,1012.7z"></path>
<path id="color_x5F_2" fill="#FBC02D" d="M1243.9,588.3c10.2-8.6,30.7-9.7,39.5-9.8c-0.1,4.9,1.9,9.4,1.9,9.4l4.5,17.2
	c0,0-5.9,10.3-19.7,11.9c-13.8,1.6-22.2,0.4-25.9-7.2c0,0,4.7-6.4,0-20.7C1244.1,588.8,1244,588.6,1243.9,588.3z M1214.2,564
	c0.3,6.4,18.4,14,18.4,14l7.1-10.2l-0.9-7.1c0,0,27.8-13.1,47.2-12.4c0,0,2.1,1.9,5.9,6.3l2.7-3.5c-4.3-1.8-7.4-8-7.4-8
	s-1.4-2.7-2.3-9.5s-2.4-9.7-2.4-9.7c-1.8-2.2-15-1.7-15-1.7s-0.1,4.2-0.1,5.6c0,1.4-0.1,7.2-5.3,6.8c-5.2-0.4-10.4-8-10.4-8
	c-18.2,3.7-20.8,15-20.8,15s-9.2,15.6-10.7,17.8C1218.4,561.5,1214.2,564,1214.2,564z M1292.2,817.8c0-0.1,0-0.1,0-0.2
	c0-0.1,0-0.2,0-0.3s0-0.2,0-0.2c0-0.1,0-0.2,0-0.3s0-0.2,0-0.3s0-0.2-0.1-0.3c0-0.1,0-0.2-0.1-0.3c0-0.1-0.1-0.2-0.1-0.3
	s-0.1-0.2-0.1-0.3s-0.1-0.2-0.1-0.3s-0.1-0.2-0.1-0.3s-0.1-0.2-0.1-0.3c-0.1-0.1-0.1-0.2-0.2-0.4c0-0.1-0.1-0.2-0.1-0.2
	c-0.1-0.1-0.2-0.3-0.3-0.4l0,0c-0.5-0.8-1.1-1.6-1.8-2.4l0,0c-0.2-0.2-0.3-0.4-0.5-0.6l0,0c-0.2-0.2-0.4-0.4-0.5-0.6l0,0l0,0
	c-3.6-3.8-8.2-7.1-8.2-7s-2.8-3.5-4.9-6.7c-0.1-0.1-0.2-0.3-0.3-0.4c-0.1-0.2-0.2-0.3-0.3-0.5c-0.1-0.1-0.2-0.3-0.2-0.4
	c-0.1-0.2-0.2-0.4-0.4-0.6c0-0.1-0.1-0.2-0.1-0.2c-0.2-0.3-0.3-0.5-0.4-0.8c0-0.1-0.1-0.1-0.1-0.2c-0.1-0.2-0.2-0.3-0.2-0.5
	c0-0.1-0.1-0.2-0.1-0.2c-0.1-0.1-0.1-0.3-0.1-0.4c0-0.1,0-0.1-0.1-0.2c0-0.2-0.1-0.3-0.1-0.5c0-0.3,0-0.6-0.1-1s-0.2-0.8-0.3-1.2
	c-0.2-0.7-0.4-1.3-0.7-2c-0.5-1.3-1.2-2.6-1.8-3.1c-0.2-0.2-0.4-0.3-0.6-0.3c-0.1,0-0.2,0-0.3,0c-0.4,0.2-1.2,0.3-2,0.5
	c-0.3,0.1-0.7,0.1-1,0.2c-0.2,0-0.3,0.1-0.5,0.2c-1.3,0.5-2.2,1.4-1.7,3.4l0,0l0,0c0,0,0,0-0.1,0c0,0,0,0-0.1,0l0,0
	c-1.1-0.8-7.3-5.4-9.1-2c-1.5,2.7-3.9,7.1-4.9,11v0.1c0,0.2-0.1,0.4-0.1,0.5s-0.1,0.3-0.1,0.4c0,0.2-0.1,0.3-0.1,0.5s0,0.3-0.1,0.5
	c0,0.1,0,0.3,0,0.4c0,0.2,0,0.4,0,0.5s0,0.2,0,0.3c0,0.3,0,0.5,0,0.8l0,0c0.1,1.7,0.5,3.1,1.3,4.3c0.1,0.2,0.3,0.4,0.4,0.6
	c1.5,1.6,4,2.6,8.4,3.4c1.5,0.2,2.9,0.8,4.3,1.5c0.7,0.3,1.3,0.7,2,1.2c5,3.3,8.7,8.2,9,8.2s7.6,2.3,12.9,1.7c0.2,0,0.5-0.1,0.7-0.1
	c0.4-0.1,0.9-0.2,1.3-0.3c0.2-0.1,0.4-0.1,0.6-0.2c0.4-0.2,0.7-0.4,1-0.6c0.5-0.3,0.9-0.8,1.2-1.3c0.1-0.2,0.2-0.3,0.2-0.5
	c0-0.1,0-0.1,0.1-0.2C1292.1,818,1292.1,817.9,1292.2,817.8z M1226.1,786.9L1226.1,786.9c0-0.3,0-0.5-0.1-0.8V786
	c-0.8-5.5-5.9-17.3-7.6-24.1c-0.1-0.3-0.1-0.6-0.2-0.8l0,0c-0.1-0.3-0.1-0.5-0.1-0.7c0,0,0,0,0-0.1c0-0.2-0.1-0.4-0.1-0.6v-0.1
	c0-0.2-0.1-0.4-0.1-0.7c-0.4-6.5,2.7-3.4,2.7-10s-7.8-2.9-7.8-2.9c1.1-6.6-4.3-5.6-4.3-5.6s-7,5.4-10.4,7.2s-5,5.4-5,5.4
	s-0.1,0.8-0.2,2c0,0.1,0,0.3,0,0.4c-0.1,0.9-0.1,1.9-0.1,3c0,0.5,0,1.1,0.1,1.6c0.2,2.4,0.9,4.6,2.6,5.5c2.5,1.4,4.2,5.2,6.7,9.9
	c0.2,0.5,0.5,1,0.8,1.5c1.3,2.5,2.9,5.2,4.9,7.9s4.3,4.5,6.7,5.4c0.7,0.3,1.4,0.5,2.1,0.7c0.9,0.2,1.8,0.3,2.7,0.3
	c3.2,0,5.8-1.2,6.7-2.7c0.1-0.1,0.1-0.2,0.1-0.4V788c0-0.1,0-0.3,0.1-0.4v-0.1C1226.1,787.3,1226.1,787.1,1226.1,786.9z
	 M560.5,836.5c3-20.3,3.8-47.4-2.1-54c0,0-11.8-0.7-19.6,1c-7.7,1.7-22.6,8.5-22.6,8.5s-14.5,13.9-19.1,21.5l4.4-5.9
	c14.2,5,21.2,45.1,21.2,45.1s-6,33.7-10.9,40.9c0,1.7-2.6,4.9-5.8,8.1c7.1,0.3,42.8,1.3,49.6-3.4c7.5-5.3,11.3-12,11.3-12
	S557.4,856.8,560.5,836.5z M490,1025.8c0.1,1.8-3.4,7.1-10.3,5.6c-6.9-1.4-12.4-7.6-18.2-8.5c-5.8-0.8-15.4-8.9-13.5-13.5
	s4.7-6.6,4.7-6.6s19.4,7.3,21.3,5.6c-1.4,1.5-2.4,3.4-2,5.4c1.1,5,10.9,5.9,12.8,4.7c0.9-0.5,1.5-1.7,1.9-2.8
	c0.5,0.4,0.9,0.7,0.9,0.7S489.8,1023.9,490,1025.8z M642,1044.4c1-7.2-9.6-16.6-6.5-29.8c0.6-2.3,1.4-3.9,2.4-4.9
	c3.8-1.1,6.4-0.7,7.9,1.4c-1.7-2.4-4.8-2.7-9.5-0.9c-6.6,2.4-7.3,2.4-7.3,2.4s-2.6,12.4-0.9,14.1c1.7,1.7,1.9,9.4,11.1,27.1
	c0.4,0.8,0.8,1.5,1.3,2.2C641,1052.4,641.6,1047.9,642,1044.4z"></path>
<path id="color_x5F_1" fill="#0984E3" d="M1257.4,489.2c-4.4,10.1,3.9,32.3,3.9,32.3c-26.5,1.9-26.6-7.5-26.6-7.5
	c-1.5-24.3,4.3-33.4,4.3-33.4s11.5-13.8,22.5-14.2c11.1-0.4,14.2,2.7,20.1,8.4c6,5.7,4.8,25.8,4.8,30.1c0.1,4.3,2.7,11.5,2.7,11.5
	c-9.2,5-14.3,2-14.3,2c10-0.5,8-25.2,8-25.2c-4.8-3.7-5.6-12.4-5.6-12.4C1270.1,493.4,1257.4,489.2,1257.4,489.2z M1254,781.9
	c0,0,3.9,3.4,9.4,3.8c0.3-0.7,0.9-1.2,1.7-1.5c0.2-0.1,0.3-0.1,0.5-0.2c0.3-0.1,0.7-0.2,1-0.2c0.8-0.2,1.6-0.3,2-0.5
	c0.1,0,0.2-0.1,0.3,0c0.2,0,0.4,0.1,0.6,0.3s0.4,0.5,0.7,0.8c0.1,0,0.2-0.1,0.2-0.1l-1.1-81.5c0,0,8-9.1,8.3-12.3
	c0.4-3.2,9.1-26.4,12.7-49.8c3.6-23.5-1.3-28.1-1.3-28.1s-8.9,3.1-16,3.9c-1,0.2-2,0.4-3,0.5c-11.7,1.4-19.5,0.7-23.9-4.2
	c-2-0.2-3.4-0.3-3.4-0.3s-6.2,5.6-3.3,28.9c2.7,21.5,11,39.9,10.8,50.7c-0.6,1-1.4,2-2.3,3c-4.9,5.3-18.5,10.1-23.8,26.4
	c-3.9,12-9.6,17.7-12.4,19.9c0.8,0.8,1.3,2.2,0.9,4.6c0,0,7.8-3.7,7.8,2.9c0,0.3,0,0.6,0,0.9l24.1-22.1c0,3.3,0.2,6.1,0.7,7.9
	C1247.4,742.9,1254.6,780.8,1254,781.9z M617,1019.7c-1.8-3.1,2.4-9.1,5.1-12.4c1.1-1.4,3-1.8,4.6-1.2c-0.1-1.2-0.2-2-0.2-2
	c-38.4-53-59.8-46-59.8-46c6.8-55.3,0-71.9,0-71.9s-3.8,6.8-11.3,12c-6.8,4.7-42.5,3.7-49.6,3.4l0,0c-1.3,1.3-2.8,2.7-4.1,3.9
	c-3.9,6.4-7.6,12.5-8.9,14.5c-2.6,4-5.6,21.4-4.8,33.2c-0.1,0.1-0.1,0.2-0.1,0.3c0,2.6-11.2,53.6-11.2,53.6c0,7,8.5,6.8,12.2,6.8
	c3.8,0,17.7-21.8,18.6-25.6c0.7-2.8,3.4-18.2,4.7-25.8c0.8-0.2,1.2-0.4,1.2-0.4s10.7-19.6,21.1-32.6c2.1,9.6,4.7,21.5,6.5,29.2
	c3.4,14.7,11.6,16.9,11.6,16.9l65.5,48.2c0.6-0.3,1.2-0.6,1.8-1C618.8,1021.9,617.7,1020.9,617,1019.7z M491.6,963
	c0.5,0.3,1,0.6,1.5,0.9C492.6,963.6,492,963.3,491.6,963z M496,964.6c3.3,0.5,7.2,0,10.5-0.7C503.2,964.6,499.3,965.1,496,964.6z
	 M497.3,735.5c0,0,11.4-12.6,28.8-5.9c17.4,6.6,19.6,29.2,19,36.5s-13.6,16.9-23.9,17.4c-10.3,0.4-9.4-9.6-9.4-9.6
	s1.1-10.7-3.4-10.3s-5.6,4.2-4.7,9.5c0,0-3.5,2.5-2.4-14.5c0,0-2.7-1.7-4.1-4.9C495.9,750.3,494.9,737.6,497.3,735.5z M635.5,1014.6
	c0.6-2.3,1.4-3.9,2.4-4.9c5.6-1.6,8.5,0,9.4,5.4c0.9,5.8,5.1,17.1,6.2,19c1.1,1.9,7.3,11.3,4.7,18.6c-2.5,7-9.1,17.7-17.7,3.4
	c0.5-3.7,1-8.3,1.5-11.7C643,1037.2,632.4,1027.7,635.5,1014.6z"></path>
</svg>